<svg width="16" height="16" viewBox="0 0 16 16" fill="none" xmlns="http://www.w3.org/2000/svg">
<path d="M0.0830078 15.5327V1.59044C0.0830078 1.16947 0.228841 0.813151 0.520508 0.521484C0.812174 0.229818 1.16849 0.0839844 1.58947 0.0839844H14.4099C14.8309 0.0839844 15.1872 0.229818 15.4788 0.521484C15.7705 0.813151 15.9163 1.16947 15.9163 1.59044V11.0775C15.9163 11.4985 15.7705 11.8548 15.4788 12.1465C15.1872 12.4382 14.8309 12.584 14.4099 12.584H3.03176L0.0830078 15.5327ZM2.49967 11.334H14.4099C14.4741 11.334 14.5328 11.3072 14.5861 11.2538C14.6396 11.2004 14.6663 11.1417 14.6663 11.0775V1.59044C14.6663 1.52628 14.6396 1.46753 14.5861 1.41419C14.5328 1.36072 14.4741 1.33398 14.4099 1.33398H1.58947C1.5253 1.33398 1.46655 1.36072 1.41322 1.41419C1.35974 1.46753 1.33301 1.52628 1.33301 1.59044V12.4879L2.49967 11.334Z" fill="#1C1B1F"/>
</svg>
