<svg width="20" height="20" viewBox="0 0 20 20" fill="none" xmlns="http://www.w3.org/2000/svg">
<path fill-rule="evenodd" clip-rule="evenodd" d="M9.9999 0.149902C6.74766 0.149902 4.31173 1.50859 2.70575 2.84691C2.38928 3.11064 2.10404 3.3743 1.8499 3.62783V1.9999C1.8499 1.53046 1.46934 1.1499 0.999902 1.1499C0.53046 1.1499 0.149902 1.53046 0.149902 1.9999V5.9999C0.149902 6.46934 0.53046 6.8499 0.999902 6.8499H4.4999C4.96934 6.8499 5.3499 6.46934 5.3499 5.9999C5.3499 5.53046 4.96934 5.1499 4.4999 5.1499H2.74344C3.03296 4.8376 3.3833 4.49519 3.79406 4.15289C5.18807 2.99121 7.25214 1.8499 9.9999 1.8499C14.5286 1.8499 18.1499 5.49697 18.1499 9.9999C18.1499 14.501 14.501 18.1499 9.9999 18.1499C5.49878 18.1499 1.8499 14.501 1.8499 9.9999C1.8499 9.53046 1.46934 9.1499 0.999902 9.1499C0.53046 9.1499 0.149902 9.53046 0.149902 9.9999C0.149902 15.4399 4.5599 19.8499 9.9999 19.8499C15.4399 19.8499 19.8499 15.4399 19.8499 9.9999C19.8499 4.56171 15.4712 0.149902 9.9999 0.149902ZM10.8499 5.9999C10.8499 5.53046 10.4693 5.1499 9.9999 5.1499C9.53046 5.1499 9.1499 5.53046 9.1499 5.9999V9.9999C9.1499 10.2841 9.29194 10.5495 9.52841 10.7071L12.5284 12.7071C12.919 12.9675 13.4467 12.862 13.7071 12.4714C13.9675 12.0808 13.862 11.5531 13.4714 11.2927L10.8499 9.545V5.9999Z" fill="#16AF9F"/>
</svg>
