<svg width="28" height="28" viewBox="0 0 28 28" fill="none" xmlns="http://www.w3.org/2000/svg">
<mask id="mask0_1733_4789" style="mask-type:alpha" maskUnits="userSpaceOnUse" x="0" y="0" width="28" height="28">
<rect width="28" height="28" fill="#D9D9D9"/>
</mask>
<g mask="url(#mask0_1733_4789)">
<path d="M10.5674 20.416C9.97801 20.416 9.47917 20.2119 9.07083 19.8035C8.6625 19.3952 8.45833 18.8963 8.45833 18.307V5.02506C8.45833 4.4357 8.6625 3.93685 9.07083 3.52852C9.47917 3.12018 9.97801 2.91602 10.5674 2.91602H20.3493C20.9387 2.91602 21.4375 3.12018 21.8458 3.52852C22.2542 3.93685 22.4583 4.4357 22.4583 5.02506V18.307C22.4583 18.8963 22.2542 19.3952 21.8458 19.8035C21.4375 20.2119 20.9387 20.416 20.3493 20.416H10.5674ZM10.5674 18.666H20.3493C20.4391 18.666 20.5214 18.6286 20.596 18.5537C20.6709 18.4791 20.7083 18.3968 20.7083 18.307V5.02506C20.7083 4.93522 20.6709 4.85297 20.596 4.77831C20.5214 4.70345 20.4391 4.66602 20.3493 4.66602H10.5674C10.4775 4.66602 10.3953 4.70345 10.3206 4.77831C10.2458 4.85297 10.2083 4.93522 10.2083 5.02506V18.307C10.2083 18.3968 10.2458 18.4791 10.3206 18.5537C10.3953 18.6286 10.4775 18.666 10.5674 18.666ZM6.48404 24.4993C5.89468 24.4993 5.39583 24.2952 4.9875 23.8869C4.57917 23.4785 4.375 22.9797 4.375 22.3903V7.35839H6.125V22.3903C6.125 22.4801 6.16243 22.5624 6.23729 22.6371C6.31196 22.7119 6.39421 22.7493 6.48404 22.7493H18.016V24.4993H6.48404Z" fill="#1E40AF"/>
</g>
</svg>
