<svg width="44" height="44" viewBox="0 0 44 44" fill="none" xmlns="http://www.w3.org/2000/svg">
<rect width="44" height="44" rx="22" fill="#06AD9B" fill-opacity="0.12"/>
<mask id="mask0_1094_1463" style="mask-type:alpha" maskUnits="userSpaceOnUse" x="10" y="10" width="24" height="24">
<rect x="10" y="10" width="24" height="24" fill="#034EA1"/>
</mask>
<g mask="url(#mask0_1094_1463)">
<path d="M21.0001 13.9246L18.9251 15.9996H16.0001V18.9246L13.9251 20.9996L16.0001 23.0746V25.9996H18.9251L21.0001 28.0746L23.5001 25.5746L27.7001 27.6996L25.5501 23.5246L28.0751 20.9996L26.0001 18.9246V15.9996H23.0751L21.0001 13.9246ZM21.0001 11.0996L23.9001 13.9996H28.0001V18.0996L30.9001 20.9996L28.0001 23.8996L30.8751 29.5496C30.9918 29.7663 31.0251 29.9788 30.9751 30.1871C30.9251 30.3954 30.8334 30.5663 30.7001 30.6996C30.5668 30.8329 30.3959 30.9246 30.1876 30.9746C29.9793 31.0246 29.7668 30.9913 29.5501 30.8746L23.9001 27.9996L21.0001 30.8996L18.1001 27.9996H14.0001V23.8996L11.1001 20.9996L14.0001 18.0996V13.9996H18.1001L21.0001 11.0996Z" fill="#034EA1"/>
</g>
</svg>
