<svg width="44" height="44" viewBox="0 0 44 44" fill="none" xmlns="http://www.w3.org/2000/svg">
<circle cx="22" cy="22" r="22" fill="#16AF9F"/>
<path fill-rule="evenodd" clip-rule="evenodd" d="M12.375 19.25C10.8625 19.25 9.625 20.4875 9.625 22C9.625 23.5125 10.8625 24.75 12.375 24.75C13.8875 24.75 15.125 23.5125 15.125 22C15.125 20.4875 13.8875 19.25 12.375 19.25ZM31.625 19.25C30.1125 19.25 28.875 20.4875 28.875 22C28.875 23.5125 30.1125 24.75 31.625 24.75C33.1375 24.75 34.375 23.5125 34.375 22C34.375 20.4875 33.1375 19.25 31.625 19.25ZM19.25 22C19.25 20.4875 20.4875 19.25 22 19.25C23.5125 19.25 24.75 20.4875 24.75 22C24.75 23.5125 23.5125 24.75 22 24.75C20.4875 24.75 19.25 23.5125 19.25 22Z" fill="white"/>
</svg>
