<svg width="44" height="44" viewBox="0 0 44 44" fill="none" xmlns="http://www.w3.org/2000/svg">
<rect width="44" height="44" rx="22" fill="#06AD9B" fill-opacity="0.12"/>
<mask id="mask0_1094_1455" style="mask-type:alpha" maskUnits="userSpaceOnUse" x="10" y="10" width="24" height="24">
<rect x="10" y="10" width="24" height="24" rx="12" fill="#034EA1"/>
</mask>
<g mask="url(#mask0_1094_1455)">
<path d="M26.4999 19.75C26.0832 19.75 25.7291 19.6042 25.4374 19.3125C25.1457 19.0208 24.9999 18.6667 24.9999 18.25C24.9999 17.8333 25.1457 17.4792 25.4374 17.1875C25.7291 16.8958 26.0832 16.75 26.4999 16.75C26.9166 16.75 27.2707 16.8958 27.5624 17.1875C27.8541 17.4792 27.9999 17.8333 27.9999 18.25C27.9999 18.6667 27.8541 19.0208 27.5624 19.3125C27.2707 19.6042 26.9166 19.75 26.4999 19.75ZM17.4999 19.75C17.0832 19.75 16.7291 19.6042 16.4374 19.3125C16.1457 19.0208 15.9999 18.6667 15.9999 18.25C15.9999 17.8333 16.1457 17.4792 16.4374 17.1875C16.7291 16.8958 17.0832 16.75 17.4999 16.75C17.9166 16.75 18.2707 16.8958 18.5624 17.1875C18.8541 17.4792 18.9999 17.8333 18.9999 18.25C18.9999 18.6667 18.8541 19.0208 18.5624 19.3125C18.2707 19.6042 17.9166 19.75 17.4999 19.75ZM21.9999 22.5C21.5832 22.5 21.2291 22.3542 20.9374 22.0625C20.6457 21.7708 20.4999 21.4167 20.4999 21C20.4999 20.5833 20.6457 20.2292 20.9374 19.9375C21.2291 19.6458 21.5832 19.5 21.9999 19.5C22.4166 19.5 22.7707 19.6458 23.0624 19.9375C23.3541 20.2292 23.4999 20.5833 23.4999 21C23.4999 21.4167 23.3541 21.7708 23.0624 22.0625C22.7707 22.3542 22.4166 22.5 21.9999 22.5ZM21.9999 17C21.5832 17 21.2291 16.8542 20.9374 16.5625C20.6457 16.2708 20.4999 15.9167 20.4999 15.5C20.4999 15.0833 20.6457 14.7292 20.9374 14.4375C21.2291 14.1458 21.5832 14 21.9999 14C22.4166 14 22.7707 14.1458 23.0624 14.4375C23.3541 14.7292 23.4999 15.0833 23.4999 15.5C23.4999 15.9167 23.3541 16.2708 23.0624 16.5625C22.7707 16.8542 22.4166 17 21.9999 17ZM21.9999 30C21.6666 30 21.3291 29.975 20.9874 29.925C20.3996 29.839 19.9999 29.311 19.9999 28.7169V26.15C19.9999 25.5667 20.1957 25.0625 20.5874 24.6375C20.9791 24.2125 21.4499 24 21.9999 24C22.5499 24 23.0207 24.2125 23.4124 24.6375C23.8041 25.0625 23.9999 25.5667 23.9999 26.15V28.7169C23.9999 29.311 23.6002 29.839 23.0124 29.925C22.6707 29.975 22.3332 30 21.9999 30ZM18.4999 28.1369C18.4999 28.6461 17.9853 28.9921 17.5374 28.75C17.2291 28.5833 16.9332 28.4 16.6499 28.2C16.1832 27.8667 15.8124 27.4333 15.5374 26.9C15.2624 26.3667 15.1249 25.8 15.1249 25.2C15.1249 24.7667 15.0791 24.3625 14.9874 23.9875C14.8957 23.6125 14.7332 23.2583 14.4999 22.925C14.3332 22.7083 14.0207 22.3792 13.5624 21.9375C13.1041 21.4958 12.6832 21.0833 12.2999 20.7C12.1166 20.5167 12.0249 20.2833 12.0249 20C12.0249 19.7167 12.1166 19.4833 12.2999 19.3C12.4832 19.1167 12.7166 19.025 12.9999 19.025C13.2832 19.025 13.5166 19.1167 13.6999 19.3L17.5249 22.925C17.8582 23.225 18.1041 23.5792 18.2624 23.9875C18.4207 24.3958 18.4999 24.8167 18.4999 25.25V28.1369ZM26.4624 28.75C26.0145 28.9921 25.4999 28.6461 25.4999 28.1369V25.25C25.4999 24.8167 25.5832 24.3917 25.7499 23.975C25.9166 23.5583 26.1582 23.2083 26.4749 22.925L30.2999 19.3C30.4999 19.1167 30.7374 19.025 31.0124 19.025C31.2874 19.025 31.5166 19.1167 31.6999 19.3C31.8832 19.4833 31.9749 19.7167 31.9749 20C31.9749 20.2833 31.8832 20.5167 31.6999 20.7C31.3166 21.0833 30.8957 21.4917 30.4374 21.925C29.9791 22.3583 29.6666 22.6917 29.4999 22.925C29.2666 23.2583 29.1041 23.6125 29.0124 23.9875C28.9207 24.3625 28.8749 24.7667 28.8749 25.2C28.8749 25.8 28.7374 26.3708 28.4624 26.9125C28.1874 27.4542 27.8082 27.8917 27.3249 28.225C27.0582 28.4083 26.7707 28.5833 26.4624 28.75Z" fill="#034EA1"/>
</g>
</svg>
