<svg width="20" height="20" viewBox="0 0 20 20" fill="none" xmlns="http://www.w3.org/2000/svg">
<mask id="mask0_1157_3597" style="mask-type:alpha" maskUnits="userSpaceOnUse" x="0" y="0" width="20" height="20">
<rect width="20" height="20" fill="#D9D9D9"/>
</mask>
<g mask="url(#mask0_1157_3597)">
<path d="M9.99967 16.939L9.07988 16.1121C7.69849 14.8589 6.55613 13.782 5.6528 12.8815C4.74947 11.9808 4.03363 11.1792 3.5053 10.4767C2.97697 9.77431 2.60787 9.13354 2.39801 8.55437C2.18801 7.97535 2.08301 7.38778 2.08301 6.79167C2.08301 5.60903 2.48176 4.61889 3.27926 3.82125C4.0769 3.02375 5.06704 2.625 6.24967 2.625C6.97717 2.625 7.66467 2.79514 8.31217 3.13542C8.95967 3.47569 9.52217 3.96368 9.99967 4.59938C10.4772 3.96368 11.0397 3.47569 11.6872 3.13542C12.3347 2.79514 13.0222 2.625 13.7497 2.625C14.9323 2.625 15.9225 3.02375 16.7201 3.82125C17.5176 4.61889 17.9163 5.60903 17.9163 6.79167C17.9163 7.38778 17.8113 7.97535 17.6013 8.55437C17.3915 9.13354 17.0224 9.77431 16.494 10.4767C15.9657 11.1792 15.2512 11.9808 14.3505 12.8815C13.45 13.782 12.3063 14.8589 10.9195 16.1121L9.99967 16.939ZM9.99967 15.25C11.333 14.0503 12.4302 13.0219 13.2913 12.165C14.1525 11.3082 14.833 10.5638 15.333 9.93188C15.833 9.29993 16.1802 8.73875 16.3747 8.24833C16.5691 7.75806 16.6663 7.2725 16.6663 6.79167C16.6663 5.95833 16.3886 5.26389 15.833 4.70833C15.2775 4.15278 14.583 3.875 13.7497 3.875C13.0916 3.875 12.4834 4.06167 11.9251 4.435C11.3669 4.80847 10.9249 5.32799 10.599 5.99354H9.4003C9.06905 5.32257 8.62565 4.80174 8.07009 4.43104C7.51454 4.06035 6.90773 3.875 6.24967 3.875C5.42162 3.875 4.72849 4.15278 4.1703 4.70833C3.61211 5.26389 3.33301 5.95833 3.33301 6.79167C3.33301 7.2725 3.43023 7.75806 3.62467 8.24833C3.81912 8.73875 4.16634 9.29993 4.66634 9.93188C5.16634 10.5638 5.8469 11.3069 6.70801 12.161C7.56912 13.0152 8.66634 14.0449 9.99967 15.25Z" fill="#1C1B1F"/>
</g>
</svg>
