<svg width="16" height="15" viewBox="0 0 16 15" fill="none" xmlns="http://www.w3.org/2000/svg">
<path d="M8.00016 14.939L7.08037 14.1121C5.69898 12.8589 4.55662 11.782 3.65329 10.8815C2.74995 9.98076 2.03412 9.17917 1.50579 8.47667C0.977455 7.77431 0.608357 7.13354 0.398496 6.55437C0.188496 5.97535 0.0834961 5.38778 0.0834961 4.79167C0.0834961 3.60903 0.482246 2.61889 1.27975 1.82125C2.07738 1.02375 3.06752 0.625 4.25016 0.625C4.97766 0.625 5.66516 0.795139 6.31266 1.13542C6.96016 1.47569 7.52266 1.96368 8.00016 2.59938C8.47766 1.96368 9.04016 1.47569 9.68766 1.13542C10.3352 0.795139 11.0227 0.625 11.7502 0.625C12.9328 0.625 13.9229 1.02375 14.7206 1.82125C15.5181 2.61889 15.9168 3.60903 15.9168 4.79167C15.9168 5.38778 15.8118 5.97535 15.6018 6.55437C15.392 7.13354 15.0229 7.77431 14.4945 8.47667C13.9662 9.17917 13.2517 9.98076 12.351 10.8815C11.4504 11.782 10.3068 12.8589 8.91996 14.1121L8.00016 14.939Z" fill="#00B7AC"/>
</svg>
