<svg width="20" height="20" viewBox="0 0 20 20" fill="none" xmlns="http://www.w3.org/2000/svg">
<mask id="mask0_1157_3554" style="mask-type:alpha" maskUnits="userSpaceOnUse" x="0" y="0" width="20" height="20">
<rect width="20" height="20" fill="#D9D9D9"/>
</mask>
<g mask="url(#mask0_1157_3554)">
<path d="M9.1669 16.6663C8.93079 16.6663 8.73287 16.5865 8.57315 16.4268C8.41342 16.267 8.33356 16.0691 8.33356 15.833V10.833L3.50023 4.66634C3.2919 4.38856 3.26065 4.0969 3.40648 3.79134C3.55231 3.48579 3.80579 3.33301 4.1669 3.33301H15.8336C16.1947 3.33301 16.4481 3.48579 16.594 3.79134C16.7398 4.0969 16.7086 4.38856 16.5002 4.66634L11.6669 10.833V15.833C11.6669 16.0691 11.587 16.267 11.4273 16.4268C11.2676 16.5865 11.0697 16.6663 10.8336 16.6663H9.1669ZM10.0002 10.2497L14.1252 4.99967H5.87523L10.0002 10.2497Z" fill="#1C1B1F"/>
</g>
</svg>
