<svg width="44" height="44" viewBox="0 0 44 44" fill="none" xmlns="http://www.w3.org/2000/svg">
<rect width="44" height="44" rx="22" fill="#06AD9B" fill-opacity="0.12"/>
<path d="M18.0715 25.143C20.8921 25.143 23.1786 22.8565 23.1786 20.0359C23.1786 17.2153 20.8921 14.9287 18.0715 14.9287C15.2509 14.9287 12.9644 17.2153 12.9644 20.0359C12.9644 22.8565 15.2509 25.143 18.0715 25.143Z" stroke="#034EA1" stroke-width="2" stroke-linecap="round" stroke-linejoin="round"/>
<path d="M24.6919 15.1153C25.1434 14.9929 25.6089 14.9301 26.0767 14.9287C27.4312 14.9287 28.7302 15.4668 29.688 16.4246C30.6458 17.3823 31.1839 18.6814 31.1839 20.0359C31.1839 21.3904 30.6458 22.6894 29.688 23.6471C28.7302 24.6049 27.4312 25.143 26.0767 25.143" stroke="#034EA1" stroke-width="2" stroke-linecap="round" stroke-linejoin="round"/>
<path d="M11 28.8161C11.7974 27.6814 12.8563 26.7551 14.0871 26.1158C15.3179 25.4764 16.6845 25.1426 18.0714 25.1426C19.4584 25.1426 20.825 25.4764 22.0558 26.1158C23.2866 26.7551 24.3454 27.6814 25.1429 28.8161" stroke="#034EA1" stroke-width="2" stroke-linecap="round" stroke-linejoin="round"/>
<path d="M26.0762 25.1426C27.4633 25.1417 28.8301 25.4751 30.061 26.1145C31.292 26.7539 32.3507 27.6805 33.1476 28.8158" stroke="#034EA1" stroke-width="2" stroke-linecap="round" stroke-linejoin="round"/>
</svg>
