<svg width="40" height="40" viewBox="0 0 40 40" fill="none" xmlns="http://www.w3.org/2000/svg">
<path d="M14.2494 20.2331L13.8611 21.682C13.6895 22.3224 13.7794 23.0048 14.1109 23.579C14.4424 24.1532 14.9885 24.5722 15.6289 24.7438C16.2694 24.9154 16.9517 24.8256 17.526 24.4941C18.1002 24.1626 18.5192 23.6165 18.6908 22.9761L16.6202 30.7035C16.4486 31.3439 16.5384 32.0263 16.87 32.6005C17.2015 33.1747 17.7475 33.5937 18.388 33.7653C19.0284 33.9369 19.7108 33.8471 20.285 33.5156C20.8592 33.1841 21.2782 32.638 21.4498 31.9976L25.3742 17.3517L26.789 22.6484C26.9604 23.2898 27.3795 23.8368 27.9542 24.1692C28.5289 24.5016 29.2121 24.592 29.8535 24.4207C30.4949 24.2493 31.0419 23.8302 31.3743 23.2555C31.7067 22.6808 31.7971 21.9976 31.6258 21.3562C29.9122 12.0066 28.298 8.46825 22.9613 7.03828C21.6928 6.69839 20.3698 6.61168 19.0678 6.78309C17.7658 6.9545 16.5104 7.38067 15.3731 8.03728C14.2358 8.69389 13.239 9.56808 12.4396 10.6099C11.6401 11.6518 11.0537 12.8409 10.7138 14.1093L9.41974 18.939C9.24813 19.5794 9.33797 20.2618 9.66949 20.836C10.001 21.4102 10.5471 21.8292 11.1875 22.0008C11.828 22.1724 12.5103 22.0826 13.0846 21.7511C13.6588 21.4196 14.0778 20.8735 14.2494 20.2331V20.2331Z" stroke="#49536E" stroke-linecap="round" stroke-linejoin="round"/>
</svg>
