<svg width="91" height="48" viewBox="0 0 91 48" fill="none" xmlns="http://www.w3.org/2000/svg">
<path d="M2.67675 3.96477V4.98927H2.70347C3.2186 4.19877 3.96233 3.80277 4.93171 3.80277C5.35925 3.80277 5.74522 3.89277 6.09259 4.07277C6.43997 4.25277 6.68491 4.55727 6.82594 4.98927C7.05603 4.61127 7.36184 4.32027 7.74039 4.11177C8.11894 3.90477 8.5346 3.80127 8.98737 3.80127C9.33474 3.80127 9.64797 3.84027 9.92854 3.91527C10.2076 3.99177 10.4496 4.11177 10.6485 4.27377C10.8489 4.43577 11.0048 4.64427 11.1147 4.90077C11.226 5.15727 11.2809 5.46477 11.2809 5.82477V10.9353H10.1468V6.36477C10.1468 6.14877 10.129 5.94627 10.0933 5.75727C10.0577 5.56827 9.9909 5.40477 9.89292 5.26527C9.79494 5.12577 9.65985 5.01627 9.48616 4.93527C9.31248 4.85427 9.08832 4.81377 8.8122 4.81377C8.25106 4.81377 7.81165 4.97577 7.49099 5.29827C7.17034 5.62227 7.0115 6.05277 7.0115 6.59277V10.9338H5.87734V6.36327C5.87734 6.13827 5.85656 5.93127 5.81796 5.74227C5.77788 5.55327 5.70811 5.38977 5.61161 5.25027C5.51364 5.11077 5.383 5.00277 5.21822 4.92627C5.05344 4.84977 4.84116 4.81077 4.58434 4.81077C4.25478 4.81077 3.97272 4.87827 3.73669 5.01327C3.50065 5.14827 3.30915 5.31027 3.16367 5.49777C3.0167 5.68677 2.90982 5.88177 2.84302 6.08427C2.77621 6.28677 2.74207 6.45477 2.74207 6.58977V10.9308H1.60791V3.96477H2.67527H2.67675Z" fill="#034EA1"/>
<path d="M17.9315 11.0837C17.6376 11.0837 17.4045 11.0012 17.2309 10.8347C17.0572 10.6682 16.9711 10.3967 16.9711 10.0187C16.6593 10.3952 16.2971 10.6682 15.8844 10.8347C15.4702 11.0012 15.0234 11.0837 14.5424 11.0837C14.2307 11.0837 13.9367 11.0507 13.6621 10.9832C13.386 10.9157 13.144 10.8032 12.9347 10.6472C12.7254 10.4897 12.5621 10.2872 12.4419 10.0397C12.3216 9.7922 12.2607 9.4937 12.2607 9.1427C12.2607 8.7467 12.3275 8.4242 12.4612 8.1722C12.5948 7.9217 12.7699 7.7162 12.9881 7.5587C13.2064 7.4012 13.4558 7.2827 13.7349 7.2017C14.0154 7.1207 14.3019 7.0532 14.5959 6.9992C14.9076 6.9362 15.203 6.8897 15.4836 6.8582C15.7642 6.8267 16.0106 6.7817 16.2244 6.7232C16.4381 6.6647 16.6074 6.5792 16.7321 6.4667C16.8568 6.3542 16.9191 6.1892 16.9191 5.9747C16.9191 5.7227 16.8716 5.5217 16.7796 5.3672C16.686 5.2142 16.5658 5.0972 16.4188 5.0177C16.2719 4.9367 16.1071 4.8827 15.926 4.8557C15.7434 4.8287 15.5638 4.8152 15.3856 4.8152C14.9046 4.8152 14.5053 4.9082 14.1847 5.0912C13.864 5.2757 13.6918 5.6237 13.6636 6.1367H12.5294C12.5473 5.7047 12.6363 5.3417 12.7966 5.0447C12.957 4.7477 13.1707 4.5077 13.4365 4.3232C13.7037 4.1387 14.0095 4.0067 14.3569 3.9257C14.7042 3.8447 15.0694 3.8042 15.4509 3.8042C15.7627 3.8042 16.0715 3.8267 16.3788 3.8717C16.686 3.9167 16.9636 4.0097 17.213 4.1477C17.461 4.2872 17.6614 4.4822 17.8143 4.7342C17.9657 4.9862 18.0414 5.3147 18.0414 5.7182V9.3047C18.0414 9.5747 18.0577 9.7727 18.0889 9.8987C18.1201 10.0247 18.224 10.0862 18.4021 10.0862C18.5001 10.0862 18.6159 10.0637 18.7495 10.0187V10.9082C18.5535 11.0252 18.2819 11.0837 17.936 11.0837M16.3476 7.5707C16.116 7.6202 15.874 7.6607 15.6202 7.6922C15.3663 7.7237 15.111 7.7597 14.8527 7.8002C14.5944 7.8407 14.3628 7.9052 14.1579 7.9952C13.9531 8.0852 13.7868 8.2127 13.6577 8.3792C13.5285 8.5457 13.4647 8.7722 13.4647 9.0602C13.4647 9.2492 13.5018 9.4082 13.579 9.5387C13.6547 9.6692 13.7527 9.7742 13.8729 9.8552C13.9932 9.9362 14.1357 9.9947 14.3004 10.0307C14.4652 10.0667 14.6315 10.0847 14.8007 10.0847C15.1733 10.0847 15.494 10.0337 15.7612 9.9302C16.0284 9.8267 16.2466 9.6962 16.4159 9.5387C16.5851 9.3812 16.7098 9.2102 16.79 9.0257C16.8701 8.8412 16.9102 8.6687 16.9102 8.5067V7.3337C16.7677 7.4417 16.5806 7.5197 16.3505 7.5692" fill="#034EA1"/>
<path d="M20.5737 3.96473V5.07023H20.6004C21.0725 4.22573 21.8192 3.80273 22.842 3.80273C23.2963 3.80273 23.6734 3.86573 23.9762 3.99173C24.279 4.11773 24.524 4.29323 24.7095 4.51823C24.8966 4.74323 25.0272 5.01023 25.1029 5.32073C25.1787 5.63123 25.2158 5.97473 25.2158 6.35273V10.9367H24.0816V6.21773C24.0816 5.78573 23.9569 5.44523 23.7075 5.19323C23.4581 4.94273 23.1152 4.81523 22.6802 4.81523C22.3329 4.81523 22.033 4.86923 21.7791 4.97723C21.5253 5.08523 21.3145 5.23823 21.1453 5.43623C20.976 5.63423 20.8498 5.86673 20.7652 6.13073C20.6806 6.39623 20.639 6.68573 20.639 7.00073V10.9382H19.5049V3.96473H20.5722H20.5737Z" fill="#034EA1"/>
<path d="M26.5894 1.30811H27.7235V2.71061H26.5894V1.30811ZM27.7235 10.9351H26.5894V3.96461H27.7235V10.9351Z" fill="#034EA1"/>
<path d="M30.2528 3.96473V4.90823H30.2795C30.4665 4.52273 30.759 4.24073 31.1598 4.06523C31.5606 3.88973 32 3.80273 32.481 3.80273C33.0154 3.80273 33.4801 3.90173 33.8764 4.09973C34.2713 4.29773 34.6009 4.56473 34.8636 4.90223C35.1264 5.23973 35.3238 5.62823 35.4574 6.06923C35.591 6.51023 35.6578 6.97673 35.6578 7.47173C35.6578 7.96673 35.5925 8.43323 35.4649 8.87423C35.3357 9.31523 35.1398 9.69923 34.8785 10.0277C34.6157 10.3562 34.2862 10.6142 33.8913 10.8032C33.4949 10.9922 33.0347 11.0867 32.5107 11.0867C32.3415 11.0867 32.1529 11.0687 31.9436 11.0327C31.7343 10.9967 31.528 10.9382 31.3231 10.8572C31.1182 10.7762 30.9253 10.6667 30.7427 10.5272C30.5601 10.3877 30.4072 10.2152 30.2825 10.0082H30.2557V13.5947H29.1216V3.96473H30.2557H30.2528ZM34.3292 6.43973C34.2446 6.12923 34.1154 5.85323 33.9418 5.61023C33.7681 5.36723 33.5469 5.17373 33.2752 5.03123C33.0036 4.88723 32.6859 4.81523 32.3207 4.81523C31.9555 4.81523 31.6141 4.89173 31.3469 5.04473C31.0796 5.19773 30.8614 5.39723 30.6922 5.64473C30.523 5.89223 30.4012 6.17273 30.3255 6.48773C30.2498 6.80273 30.2127 7.12073 30.2127 7.44473C30.2127 7.78673 30.2528 8.11673 30.3329 8.43623C30.4131 8.75573 30.5393 9.03623 30.713 9.27923C30.8867 9.52223 31.1108 9.71723 31.3869 9.86573C31.663 10.0142 31.9956 10.0877 32.3875 10.0877C32.7794 10.0877 33.106 10.0112 33.3687 9.85823C33.6315 9.70524 33.8423 9.50273 34.0026 9.25223C34.163 9.00024 34.2773 8.71223 34.3485 8.38973C34.4198 8.06573 34.4554 7.73273 34.4554 7.39223C34.4554 7.06823 34.4123 6.75173 34.3277 6.44123" fill="#034EA1"/>
<path d="M41.9242 11.0837C41.6303 11.0837 41.3972 11.0012 41.2235 10.8347C41.0498 10.6682 40.9637 10.3967 40.9637 10.0187C40.652 10.3952 40.2898 10.6682 39.8771 10.8347C39.4629 11.0012 39.0161 11.0837 38.5366 11.0837C38.2248 11.0837 37.9309 11.0507 37.6548 10.9832C37.3787 10.9157 37.1367 10.8032 36.9274 10.6472C36.7181 10.4897 36.5548 10.2872 36.4345 10.0397C36.3143 9.79223 36.2534 9.49373 36.2534 9.14273C36.2534 8.74673 36.3202 8.42423 36.4538 8.17223C36.5874 7.92173 36.7626 7.71623 36.9808 7.55873C37.199 7.40123 37.447 7.28273 37.7275 7.20173C38.0081 7.12073 38.2946 7.05323 38.5885 6.99923C38.9003 6.93623 39.1957 6.88973 39.4763 6.85823C39.7568 6.82673 40.0033 6.78173 40.217 6.72323C40.4308 6.66473 40.6 6.57923 40.7247 6.46673C40.8494 6.35423 40.9118 6.18923 40.9118 5.97473C40.9118 5.72273 40.8658 5.52173 40.7722 5.36723C40.6787 5.21423 40.5585 5.09723 40.4115 5.01623C40.2645 4.93523 40.0998 4.88123 39.9172 4.85423C39.7346 4.82723 39.555 4.81373 39.3768 4.81373C38.8958 4.81373 38.4965 4.90673 38.1758 5.08973C37.8567 5.27423 37.683 5.62223 37.6548 6.13523H36.5206C36.5384 5.70323 36.6275 5.34023 36.7878 5.04323C36.9482 4.74623 37.1619 4.50623 37.4291 4.32173C37.6964 4.13723 38.0022 4.00523 38.3495 3.92423C38.6969 3.84323 39.0621 3.80273 39.4436 3.80273C39.7554 3.80273 40.0641 3.82523 40.3714 3.87023C40.6787 3.91523 40.9563 4.00823 41.2057 4.14623C41.4551 4.28573 41.654 4.48073 41.8055 4.73273C41.9569 4.98473 42.0326 5.31323 42.0326 5.71673V9.30323C42.0326 9.57323 42.0474 9.77124 42.0786 9.89724C42.1098 10.0232 42.2137 10.0847 42.3918 10.0847C42.4898 10.0847 42.6056 10.0622 42.7392 10.0172V10.9067C42.5433 11.0237 42.2731 11.0822 41.9257 11.0822M40.3388 7.56923C40.1072 7.61873 39.8652 7.65923 39.6114 7.69073C39.3575 7.72223 39.1022 7.75823 38.8439 7.79873C38.5856 7.83923 38.354 7.90373 38.1506 7.99373C37.9457 8.08373 37.7795 8.21123 37.6503 8.37773C37.5212 8.54423 37.4573 8.77073 37.4573 9.05873C37.4573 9.24773 37.4945 9.40673 37.5702 9.53724C37.6459 9.66774 37.7439 9.77274 37.8641 9.85374C37.9843 9.93474 38.1269 9.99324 38.2916 10.0292C38.4564 10.0652 38.6227 10.0832 38.7919 10.0832C39.166 10.0832 39.4867 10.0322 39.7524 9.92874C40.0196 9.82524 40.2378 9.69474 40.4071 9.53724C40.5763 9.37973 40.701 9.20873 40.7811 9.02423C40.8613 8.83973 40.9014 8.66723 40.9014 8.50523V7.33223C40.7589 7.44023 40.5718 7.51823 40.3417 7.56773" fill="#034EA1"/>
<path d="M44.6854 1.30811H43.5513V10.9351H44.6854V1.30811Z" fill="#034EA1"/>
<path d="M5.27465 45.9889H5.28653L6.19801 42.1729H6.60328L5.50623 46.5754H5.07127L4.10189 42.6859H4.09002L3.12064 46.5754H2.68568L1.60645 42.1729H2.00132L2.90093 45.9889H2.91281L3.8807 42.1729H4.3216L5.27317 45.9889H5.27465Z" fill="#686969"/>
<path d="M7.21777 46.5754V42.1729H7.61265V46.5754H7.21777Z" fill="#686969"/>
<path d="M8.23195 42.1729H11.2707V42.5269H9.94804V46.5754H9.55316V42.5269H8.23047V42.1729H8.23195Z" fill="#686969"/>
<path d="M11.8184 46.5754V42.1729H12.2132V44.0629H14.6849V42.1729H15.0798V46.5754H14.6849V44.4169H12.2132V46.5754H11.8184Z" fill="#686969"/>
<path d="M18.907 44.2934L20.1659 42.1709H20.6246L19.1104 44.6534V46.5734H18.7155V44.6834L17.2251 42.1694H17.6779L18.907 44.2919V44.2934Z" fill="#686969"/>
<path d="M20.7031 44.3806C20.7031 44.0581 20.7447 43.7566 20.8278 43.4761C20.911 43.1941 21.0342 42.9496 21.196 42.7396C21.3578 42.5296 21.5597 42.3631 21.7987 42.2416C22.0377 42.1186 22.3153 42.0586 22.6285 42.0586C22.9418 42.0586 23.2387 42.1186 23.4836 42.2386C23.7285 42.3586 23.9334 42.5236 24.0982 42.7336C24.263 42.9436 24.3862 43.1896 24.4693 43.4731C24.5524 43.7566 24.594 44.0596 24.594 44.3806C24.594 44.7016 24.5524 44.9971 24.4693 45.2761C24.3862 45.5551 24.263 45.7996 24.1012 46.0096C23.9393 46.2196 23.736 46.3861 23.4925 46.5076C23.249 46.6306 22.967 46.6906 22.6463 46.6906C22.3257 46.6906 22.0436 46.6291 21.8002 46.5076C21.5567 46.3846 21.3533 46.2196 21.1915 46.0096C21.0297 45.7996 20.908 45.5551 20.8263 45.2761C20.7447 44.9971 20.7046 44.6986 20.7046 44.3806H20.7031ZM22.6523 46.3381C22.9225 46.3381 23.1555 46.2841 23.3515 46.1761C23.5459 46.0681 23.7078 45.9241 23.8325 45.7456C23.9586 45.5656 24.0507 45.3586 24.1115 45.1216C24.1709 44.8846 24.2021 44.6386 24.2021 44.3821C24.2021 44.0761 24.1665 43.8016 24.0952 43.5601C24.024 43.3171 23.92 43.1101 23.785 42.9391C23.6499 42.7681 23.4851 42.6376 23.2921 42.5476C23.0991 42.4576 22.8824 42.4126 22.6419 42.4126C22.3747 42.4126 22.1446 42.4681 21.9486 42.5776C21.7542 42.6871 21.5923 42.8341 21.4676 43.0156C21.3415 43.1971 21.2494 43.4056 21.1886 43.6426C21.1292 43.8796 21.098 44.1256 21.098 44.3821C21.098 44.6386 21.1277 44.8921 21.1886 45.1276C21.2479 45.3646 21.3415 45.5716 21.4676 45.7516C21.5938 45.9316 21.7542 46.0741 21.9486 46.1791C22.1431 46.2841 22.3791 46.3381 22.6538 46.3381H22.6523Z" fill="#686969"/>
<path d="M25.3394 42.1729H25.7342V44.7964C25.7342 45.3424 25.8307 45.7354 26.0237 45.9769C26.2167 46.2169 26.5284 46.3384 26.9575 46.3384C27.1816 46.3384 27.3716 46.3069 27.529 46.2439C27.6864 46.1809 27.8125 46.0849 27.909 45.9559C28.0055 45.8269 28.0753 45.6679 28.1183 45.4759C28.1614 45.2839 28.1822 45.0574 28.1822 44.7964V42.1729H28.5771V44.9179C28.5771 45.4924 28.4434 45.9319 28.1748 46.2364C27.9061 46.5409 27.5008 46.6924 26.9589 46.6924C26.4171 46.6924 26.0074 46.5379 25.7402 46.2274C25.473 45.9184 25.3394 45.4819 25.3394 44.9194V42.1744V42.1729Z" fill="#686969"/>
<path d="M30.7515 46.5754L32.3933 42.1729H32.8402L34.4405 46.5754H34.0352L33.5542 45.1939H31.6511L31.1582 46.5754H30.753H30.7515ZM31.7847 44.8384H33.4206L32.6026 42.5269L31.7847 44.8384Z" fill="#686969"/>
<path d="M34.126 42.1729H37.1648V42.5269H35.8421V46.5754H35.4472V42.5269H34.1245V42.1729H34.126Z" fill="#686969"/>
<path d="M39.3408 46.5754V42.1729H42.1198V42.5269H39.7357V44.1169H41.8882V44.4709H39.7357V46.2199H42.1777V46.5739H39.3408V46.5754Z" fill="#686969"/>
<path d="M42.5889 42.1729H43.0001L44.259 46.0864L45.5119 42.1729H45.9231L44.4727 46.5754H44.0378L42.5874 42.1729H42.5889Z" fill="#686969"/>
<path d="M46.4829 46.5754V42.1729H49.2619V42.5269H46.8778V44.1169H49.0303V44.4709H46.8778V46.2199H49.3198V46.5739H46.4829V46.5754Z" fill="#686969"/>
<path d="M50.3338 44.5759V46.5754L49.939 46.5694V42.1729H51.5749C52.0351 42.1729 52.3869 42.2629 52.6304 42.4444C52.8738 42.6259 52.9956 42.9199 52.9956 43.3279C52.9956 43.6054 52.9421 43.8259 52.8367 43.9879C52.7298 44.1514 52.5576 44.2894 52.3171 44.4034C52.4404 44.4484 52.5368 44.5129 52.6066 44.5999C52.6764 44.6854 52.7283 44.7829 52.764 44.8939C52.7981 45.0034 52.8204 45.1204 52.8308 45.2419C52.8397 45.3649 52.8471 45.4819 52.8516 45.5959C52.856 45.7639 52.862 45.9019 52.8723 46.0114C52.8813 46.1209 52.8931 46.2109 52.9065 46.2799C52.9198 46.3489 52.9362 46.4029 52.9555 46.4419C52.9748 46.4809 52.9985 46.5109 53.0252 46.5304V46.5664L52.5903 46.5724C52.5472 46.4989 52.5175 46.3969 52.4997 46.2664C52.4819 46.1359 52.4686 45.9994 52.4597 45.8569C52.4493 45.7144 52.4418 45.5749 52.4359 45.4414C52.43 45.3064 52.4196 45.1969 52.4032 45.1114C52.3795 44.9929 52.3424 44.8984 52.2904 44.8264C52.2385 44.7544 52.1761 44.7004 52.1019 44.6644C52.0291 44.6269 51.946 44.6029 51.8555 44.5909C51.7649 44.5789 51.6714 44.5729 51.5749 44.5729H50.3338V44.5759ZM51.563 44.2219C51.71 44.2219 51.8466 44.2054 51.9712 44.1724C52.0974 44.1394 52.2058 44.0884 52.2993 44.0164C52.3928 43.9444 52.4656 43.8544 52.519 43.7449C52.5725 43.6354 52.6007 43.5019 52.6007 43.3474C52.6007 43.1839 52.5725 43.0504 52.5161 42.9439C52.4597 42.8374 52.3839 42.7549 52.2904 42.6934C52.1954 42.6319 52.087 42.5899 51.9653 42.5644C51.8436 42.5404 51.7174 42.5269 51.5853 42.5269H50.3324V44.2204H51.5615L51.563 44.2219Z" fill="#686969"/>
<path d="M54.9637 44.2934L56.2225 42.1709H56.6812L55.1671 44.6534V46.5734H54.7722V44.6834L53.2817 42.1694H53.7345L54.9637 44.2919V44.2934Z" fill="#686969"/>
<path d="M59.0001 45.2611C59.015 45.4576 59.0565 45.6226 59.1248 45.7591C59.1931 45.8956 59.2792 46.0066 59.3861 46.0921C59.493 46.1776 59.6147 46.2406 59.7543 46.2781C59.8938 46.3171 60.0422 46.3366 60.2011 46.3366C60.3867 46.3366 60.547 46.3126 60.6821 46.2631C60.8172 46.2136 60.927 46.1476 61.0131 46.0651C61.0977 45.9811 61.1616 45.8851 61.2016 45.7741C61.2417 45.6646 61.2625 45.5476 61.2625 45.4261C61.2625 45.2551 61.2254 45.1171 61.1527 45.0106C61.0799 44.9041 60.9834 44.8186 60.8661 44.7511C60.7474 44.6836 60.6123 44.6296 60.4594 44.5891C60.3065 44.5486 60.1506 44.5081 59.9903 44.4706C59.83 44.4316 59.6726 44.3866 59.5197 44.3326C59.3668 44.2801 59.2317 44.2081 59.1144 44.1181C58.9957 44.0281 58.9007 43.9126 58.8279 43.7731C58.7552 43.6321 58.7181 43.4536 58.7181 43.2376C58.7181 43.0876 58.7478 42.9406 58.8086 42.7966C58.868 42.6541 58.9571 42.5281 59.0758 42.4171C59.1931 42.3076 59.3416 42.2191 59.5197 42.1546C59.6978 42.0901 59.9027 42.0571 60.1343 42.0571C60.3659 42.0571 60.5767 42.0916 60.7518 42.1606C60.9285 42.2296 61.074 42.3241 61.1898 42.4456C61.3056 42.5656 61.3931 42.7051 61.451 42.8641C61.5089 43.0231 61.5386 43.1926 61.5386 43.3711H61.1616C61.1616 43.2046 61.1334 43.0591 61.0769 42.9376C61.0205 42.8161 60.9448 42.7156 60.8483 42.6376C60.7518 42.5596 60.642 42.5026 60.5173 42.4666C60.3941 42.4306 60.2664 42.4111 60.1343 42.4111C59.9339 42.4111 59.7646 42.4411 59.6266 42.4996C59.4885 42.5596 59.3802 42.6346 59.2985 42.7291C59.2169 42.8236 59.1605 42.9271 59.1308 43.0411C59.0996 43.1551 59.0937 43.2691 59.113 43.3831C59.1367 43.5256 59.1901 43.6396 59.2748 43.7251C59.3594 43.8106 59.4648 43.8811 59.588 43.9366C59.7112 43.9921 59.8478 44.0371 59.9977 44.0716C60.1462 44.1061 60.2976 44.1436 60.4535 44.1811C60.6078 44.2201 60.7578 44.2651 60.9033 44.3191C61.0487 44.3716 61.1764 44.4436 61.2892 44.5336C61.4006 44.6236 61.4911 44.7391 61.5594 44.8786C61.6277 45.0196 61.6604 45.1951 61.6604 45.4081C61.6604 45.8161 61.5268 46.1311 61.2595 46.3561C60.9923 46.5796 60.6182 46.6921 60.1343 46.6921C59.9175 46.6921 59.7171 46.6621 59.5316 46.6036C59.346 46.5451 59.1857 46.4551 59.0506 46.3351C58.9155 46.2151 58.8101 46.0666 58.7344 45.8881C58.6587 45.7111 58.6216 45.5026 58.6216 45.2611H59.0046H59.0001Z" fill="#686969"/>
<path d="M61.9263 42.1729H64.9665V42.5269H63.6438V46.5754H63.249V42.5269H61.9263V42.1729Z" fill="#686969"/>
<path d="M65.5156 46.5754V42.1729H68.2946V42.5269H65.9105V44.1169H68.063V44.4709H65.9105V46.2199H68.3525V46.5739H65.5156V46.5754Z" fill="#686969"/>
<path d="M68.9658 46.5754V42.1729H70.4919C70.7621 42.1729 70.9862 42.2059 71.1614 42.2704C71.3366 42.3349 71.4761 42.4249 71.5786 42.5389C71.681 42.6529 71.7523 42.7849 71.7938 42.9334C71.8339 43.0819 71.8547 43.2379 71.8547 43.4014C71.8547 43.6459 71.8072 43.8484 71.7122 44.0074C71.6172 44.1664 71.4939 44.2924 71.344 44.3839C71.1926 44.4754 71.0219 44.5399 70.8304 44.5759C70.6389 44.6134 70.4459 44.6314 70.2529 44.6314H69.3592V46.5754H68.9644H68.9658ZM70.2648 44.2759C70.4503 44.2759 70.6166 44.2639 70.7636 44.2384C70.9105 44.2144 71.0352 44.1679 71.1377 44.1004C71.2401 44.0329 71.3188 43.9414 71.3752 43.8259C71.4316 43.7104 71.4598 43.5574 71.4598 43.3699C71.4598 43.0924 71.3737 42.8824 71.2015 42.7399C71.0293 42.5974 70.7562 42.5254 70.3806 42.5254H69.3592V44.2744H70.2648V44.2759Z" fill="#686969"/>
<path d="M40.2343 28.2212V35.1092L34.7461 28.2212H33.6743V37.4657H34.9822V30.5777L40.4704 37.4657H41.5422V28.2212H40.2343Z" fill="#034EA1"/>
<path d="M49.1992 28.2212V35.1092L43.711 28.2212H42.6392V37.4657H43.9455V30.5777L49.4352 37.4657H50.5055V28.2212H49.1992Z" fill="#034EA1"/>
<path d="M52.9104 36.3167V33.3317H57.4975V32.2097H52.9104V29.3702H58.0586V28.2212H51.6025V37.4657H58.2412V36.3167H52.9104Z" fill="#034EA1"/>
<path d="M64.9691 36.1247C64.5327 36.3047 64.068 36.3947 63.5707 36.3947C63.0734 36.3947 62.5791 36.3077 62.1397 36.1307C61.7003 35.9552 61.3187 35.7077 60.9966 35.3912C60.6745 35.0747 60.4236 34.6982 60.2454 34.2617C60.0673 33.8252 59.9767 33.3527 59.9767 32.8427C59.9767 32.3327 60.0658 31.8587 60.2454 31.4237C60.4236 30.9887 60.6745 30.6122 60.9966 30.2942C61.3187 29.9777 61.7003 29.7302 62.1397 29.5547C62.5791 29.3792 63.0571 29.2907 63.5707 29.2907C64.0844 29.2907 64.5327 29.3807 64.9691 29.5622C65.4041 29.7422 65.796 30.0182 66.1449 30.3872L66.994 29.5562C66.5754 29.0807 66.0677 28.7222 65.4724 28.4807C64.8756 28.2392 64.2239 28.1177 63.5188 28.1177C62.8136 28.1177 62.1798 28.2347 61.5919 28.4672C61.004 28.7012 60.4919 29.0312 60.0569 29.4572C59.6205 29.8847 59.282 30.3842 59.0371 30.9557C58.7936 31.5272 58.6719 32.1572 58.6719 32.8442C58.6719 33.5312 58.7936 34.1597 59.0385 34.7327C59.282 35.3042 59.6205 35.8037 60.051 36.2312C60.483 36.6587 60.9922 36.9887 61.58 37.2212C62.1679 37.4552 62.8107 37.5707 63.5069 37.5707C64.2031 37.5707 64.8771 37.4477 65.4739 37.2002C66.0706 36.9542 66.5783 36.5927 66.9955 36.1172L66.1463 35.2847C65.7975 35.6627 65.4056 35.9432 64.9706 36.1232L64.9691 36.1247Z" fill="#034EA1"/>
<path d="M74.9908 29.3702V28.2212H67.4243V29.3702H70.5611V37.4657H71.8556L71.8541 29.3702H74.9908Z" fill="#034EA1"/>
<path d="M48.889 16.0859L45.1228 22.5794L41.3091 16.0859H40.2373V25.3304H41.4917V18.6314L44.7992 24.2069H45.3989L48.7064 18.5894L48.7198 25.3304H49.9742L49.9608 16.0859H48.889Z" fill="#00B7AC"/>
<path d="M57.7873 16.0859V21.2879C57.7873 22.3184 57.5632 23.0699 57.1149 23.5454C56.6665 24.0209 56.0282 24.2579 55.1998 24.2579C54.3715 24.2579 53.7465 24.0209 53.2982 23.5454C52.8499 23.0699 52.6242 22.3169 52.6242 21.2879V16.0859H51.3179V21.3419C51.3179 22.6799 51.6623 23.6969 52.3511 24.3929C53.0399 25.0889 53.9855 25.4354 55.1865 25.4354C56.3874 25.4354 57.3449 25.0874 58.0293 24.3929C58.7137 23.6969 59.0551 22.6814 59.0551 21.3419V16.0859H57.7873Z" fill="#00B7AC"/>
<path d="M66.9736 16.0859V22.9739L61.4839 16.0859H60.4121L60.4136 25.3304H61.72V18.4424L67.2082 25.3304H68.28V16.0859H66.9736Z" fill="#00B7AC"/>
<path d="M70.9118 16.0859H69.6055V25.3289H70.9118V16.0859Z" fill="#00B7AC"/>
<path d="M79.8561 16.0859H72.2896V17.2349H75.4263V25.3304H76.7193V17.2349H79.8561V16.0859Z" fill="#00B7AC"/>
<path d="M89.3907 16.0859H88.0977L85.1584 20.9624L82.2295 16.0859H80.8311L84.4651 22.1114V25.3304H85.7581V22.1309L89.3907 16.0859Z" fill="#00B7AC"/>
<path d="M37.8133 16.0859L34.0471 22.5779L30.2334 16.0859H29.1616V23.0819C29.604 23.3219 30.0241 23.5979 30.416 23.9099V18.6299L33.722 24.2054H34.3232L37.6307 18.5879L37.6426 25.3289H38.897L38.8836 16.0859H37.8118H37.8133Z" fill="#00B7AC"/>
<path d="M17.6996 34.5075C15.9613 35.775 13.8162 36.42 11.5909 36.2655C7.00378 35.9475 3.28659 32.2155 2.94218 27.5835C2.74474 24.93 3.6206 22.398 5.40645 20.4525C7.17004 18.5325 9.66252 17.4315 12.2456 17.4315C13.9379 17.4315 15.5486 17.886 16.9485 18.714C17.0969 18.3015 17.2869 17.9055 17.52 17.532C15.8826 16.584 14.0032 16.0785 12.0541 16.113C6.19176 16.218 1.50667 21.126 1.61058 27.0525C1.71153 32.874 6.4842 37.6095 12.247 37.6095C14.4827 37.6095 16.6248 36.8955 18.4003 35.619C18.1405 35.268 17.906 34.896 17.6996 34.5075Z" fill="#00B7AC"/>
<path d="M25.4129 24.1213C25.3654 24.1123 24.9749 24.0598 25.2392 24.0898C25.1694 24.0823 25.1026 24.0688 25.0388 24.0523C24.2846 24.6388 23.3078 24.9448 22.2494 24.8068C20.6253 24.5938 19.3041 23.2993 19.0384 21.6673C18.8632 20.5918 19.1423 19.5733 19.7168 18.7843C19.4125 18.5233 19.1765 18.1888 19.0384 17.8018C18.1551 18.8383 17.6875 20.2438 17.8983 21.7453C18.2219 24.0598 20.1696 25.8583 22.4795 25.9843C24.0694 26.0713 25.4945 25.3918 26.4461 24.2893C26.1922 24.2578 25.9384 24.2218 25.686 24.1738C25.5954 24.1573 25.5034 24.1393 25.4129 24.1213Z" fill="#00B7AC"/>
<path d="M27.6589 20.8888C27.5877 18.4018 25.7024 16.3963 23.3257 16.1143C23.4415 16.3918 23.5053 16.6948 23.5053 17.0143C23.5053 17.1148 23.4875 17.2093 23.4756 17.3053C24.9156 17.5903 26.1017 18.7198 26.4283 20.1883C26.4684 20.3653 26.4936 20.5408 26.5085 20.7148C26.556 21.2863 26.9286 21.7708 27.4749 21.9268C27.5075 21.9358 27.5402 21.9463 27.5728 21.9553C27.6382 21.6103 27.6693 21.2548 27.6589 20.8888Z" fill="#00B7AC"/>
<path d="M21.1985 18.5638C22.0447 18.5638 22.732 17.8708 22.732 17.0143C22.732 16.1578 22.0462 15.4648 21.1985 15.4648C20.3509 15.4648 19.665 16.1578 19.665 17.0143C19.665 17.8708 20.3509 18.5638 21.1985 18.5638Z" fill="#00B7AC"/>
<path d="M23.998 36.2099C21.599 35.7434 19.6825 33.7649 19.3307 31.2809C19.1734 30.1709 19.3277 29.1044 19.7196 28.1594C19.9765 27.5414 19.7731 26.8394 19.2209 26.4689C19.2075 26.4599 19.1956 26.4509 19.1823 26.4419C18.2945 27.7829 17.8418 29.4374 18.0243 31.1924C18.3673 34.4834 20.9503 37.1189 24.1524 37.5524C24.041 37.2254 23.9668 36.8804 23.9668 36.5159C23.9668 36.4109 23.9876 36.3119 23.998 36.2099Z" fill="#034EA1"/>
<path d="M27.1348 34.0947C25.8106 34.0947 24.7388 35.1792 24.7388 36.5157C24.7388 37.8522 25.8121 38.9367 27.1348 38.9367C28.4589 38.9367 29.5307 37.8522 29.5307 36.5157C29.5307 35.1792 28.4574 34.0947 27.1348 34.0947Z" fill="#034EA1"/>
<path d="M32.1761 29.6323C31.7931 26.0833 28.8048 23.3188 25.2717 23.2378C23.7278 23.2018 22.2997 23.6653 21.124 24.4708C21.4744 24.6418 21.8529 24.7588 22.2493 24.8113C22.7006 24.8698 23.134 24.8413 23.5452 24.7513C24.1791 24.5728 24.8575 24.4978 25.5612 24.5518C28.2793 24.7603 30.5269 26.9098 30.8817 29.6413C31.1162 31.4398 30.5283 33.1168 29.4461 34.3423C29.7505 34.6723 29.9791 35.0683 30.1246 35.5048C31.5883 34.0258 32.4211 31.9153 32.1747 29.6323H32.1761Z" fill="#034EA1"/>
</svg>
