<svg width="54" height="54" viewBox="0 0 54 54" fill="none" xmlns="http://www.w3.org/2000/svg">
<mask id="mask0_1272_1584" style="mask-type:alpha" maskUnits="userSpaceOnUse" x="0" y="0" width="54" height="54">
<rect width="54" height="54" fill="#D9D9D9"/>
</mask>
<g mask="url(#mask0_1272_1584)">
<path d="M4.04639 43.4425V38.4402C4.04639 37.2807 4.34564 36.2459 4.94414 35.3357C5.54264 34.4256 6.34195 33.7176 7.34207 33.2117C9.48032 32.1659 11.6304 31.3594 13.7923 30.7924C15.9545 30.2258 18.3307 29.9425 20.9208 29.9425C21.9768 29.9425 23.0131 29.9937 24.0298 30.0961C25.0468 30.1984 26.0471 30.3563 27.0307 30.5697C26.6778 31.0482 26.3726 31.5479 26.115 32.0687C25.857 32.5896 25.6372 33.1313 25.4557 33.6938C24.7087 33.5494 23.9585 33.4506 23.2051 33.3974C22.4521 33.3441 21.6907 33.3175 20.9208 33.3175C18.6768 33.3175 16.574 33.5633 14.6124 34.0549C12.6508 34.5469 10.7441 35.2703 8.89232 36.2251C8.38157 36.4992 8.00864 36.8194 7.77351 37.1858C7.53839 37.5522 7.42082 37.9703 7.42082 38.4402V40.0675H24.9191C25.0402 40.6904 25.1887 41.2795 25.3646 41.8349C25.5405 42.3902 25.7698 42.9261 26.0525 43.4425H4.04639ZM20.9208 26.3076C18.7552 26.3076 16.9014 25.5366 15.3594 23.9946C13.8174 22.4522 13.0464 20.5982 13.0464 18.4326C13.0464 16.267 13.8174 14.4132 15.3594 12.8712C16.9014 11.3288 18.7552 10.5576 20.9208 10.5576C23.0865 10.5576 24.9405 11.3288 26.4828 12.8712C28.0248 14.4132 28.7958 16.267 28.7958 18.4326C28.7958 20.5982 28.0248 22.4522 26.4828 23.9946C24.9405 25.5366 23.0865 26.3076 20.9208 26.3076ZM40.3484 18.4326C40.3484 20.5982 39.5774 22.4522 38.0354 23.9946C36.4935 25.5366 34.6396 26.3076 32.474 26.3076C32.2201 26.3076 31.8971 26.2787 31.5048 26.221C31.1122 26.1632 30.7891 26.0999 30.5356 26.0309C31.4229 24.964 32.1048 23.7805 32.5814 22.4804C33.0577 21.1802 33.2958 19.8302 33.2958 18.4304C33.2958 17.0301 33.0528 15.6852 32.5668 14.3956C32.0808 13.1063 31.4038 11.9194 30.5356 10.8349C30.8585 10.7194 31.1816 10.6444 31.5048 10.6099C31.8277 10.5751 32.1508 10.5576 32.474 10.5576C34.6396 10.5576 36.4935 11.3288 38.0354 12.8712C39.5774 14.4132 40.3484 16.267 40.3484 18.4326ZM20.9208 22.9326C22.1583 22.9326 23.2177 22.492 24.0989 21.6107C24.9802 20.7295 25.4208 19.6701 25.4208 18.4326C25.4208 17.1951 24.9802 16.1357 24.0989 15.2545C23.2177 14.3732 22.1583 13.9326 20.9208 13.9326C19.6833 13.9326 18.624 14.3732 17.7427 15.2545C16.8615 16.1357 16.4208 17.1951 16.4208 18.4326C16.4208 19.6701 16.8615 20.7295 17.7427 21.6107C18.624 22.492 19.6833 22.9326 20.9208 22.9326ZM37.9072 42.7501C39.2812 42.7501 40.4261 42.3211 41.3418 41.4631C42.2576 40.6047 42.7271 39.4184 42.7503 37.9041C42.7736 36.5279 42.3157 35.3761 41.3767 34.4487C40.4377 33.5213 39.2812 33.0576 37.9072 33.0576C36.5332 33.0576 35.3816 33.5224 34.4523 34.4521C33.5227 35.3813 33.0579 36.5329 33.0579 37.9069C33.0579 39.2809 33.5227 40.4316 34.4523 41.359C35.3816 42.2864 36.5332 42.7501 37.9072 42.7501ZM37.9044 46.1251C35.6435 46.1251 33.7081 45.3203 32.0983 43.7108C30.488 42.1013 29.6829 40.1665 29.6829 37.9064C29.6829 35.6462 30.4876 33.7105 32.0971 32.0991C33.7066 30.4881 35.6414 29.6826 37.9016 29.6826C40.1621 29.6826 42.0978 30.4877 43.7088 32.098C45.3198 33.7079 46.1253 35.6432 46.1253 37.9041C46.1253 38.7509 46.0113 39.5517 45.7833 40.3066C45.5553 41.0614 45.2208 41.7619 44.7798 42.4081L50.4088 48.0156L48.0592 50.3871L42.4303 44.7576C41.7841 45.2132 41.0838 45.5551 40.3293 45.7831C39.5752 46.0111 38.7669 46.1251 37.9044 46.1251Z" fill="#8D8E91"/>
</g>
</svg>
