<svg width="20" height="20" viewBox="0 0 20 20" fill="none" xmlns="http://www.w3.org/2000/svg">
<path fill-rule="evenodd" clip-rule="evenodd" d="M7.3634 0.150391H12.6374C13.7261 0.150384 14.5951 0.150378 15.2968 0.207711C16.0164 0.266502 16.6346 0.389792 17.2022 0.679009C18.1148 1.144 18.8568 1.88595 19.3218 2.79854C19.611 3.36616 19.7343 3.98441 19.7931 4.70398C19.8504 5.40572 19.8504 6.27469 19.8504 7.36346V12.6373C19.8504 13.7261 19.8504 14.5951 19.7931 15.2968C19.7343 16.0164 19.611 16.6346 19.3218 17.2022C18.8568 18.1148 18.1148 18.8568 17.2022 19.3218C16.6346 19.611 16.0164 19.7343 15.2968 19.7931C14.5951 19.8504 13.7261 19.8504 12.6373 19.8504H7.36346C6.27469 19.8504 5.40572 19.8504 4.70398 19.7931C3.98441 19.7343 3.36616 19.611 2.79854 19.3218C1.88595 18.8568 1.144 18.1148 0.679009 17.2022C0.389792 16.6346 0.266502 16.0164 0.207711 15.2968C0.150378 14.5951 0.150384 13.7261 0.150391 12.6374V7.3634V7.3634C0.150384 6.27465 0.150378 5.4057 0.207711 4.70398C0.266502 3.98441 0.389792 3.36616 0.679009 2.79854C1.144 1.88595 1.88595 1.144 2.79854 0.679009C3.36616 0.389792 3.98441 0.266502 4.70398 0.207711C5.4057 0.150378 6.27465 0.150384 7.3634 0.150391H7.3634ZM4.84242 1.90206C4.22797 1.95227 3.85835 2.04696 3.57032 2.19372C2.97761 2.49572 2.49572 2.97761 2.19372 3.57032C2.04696 3.85835 1.95227 4.22797 1.90206 4.84242C1.85105 5.46678 1.85039 6.26626 1.85039 7.40039V12.6004C1.85039 13.5916 1.8509 14.3272 1.88508 14.9136L5.48514 11.3136C6.59813 10.2006 8.40265 10.2006 9.51565 11.3136L12.0004 13.7983L12.9851 12.8136C14.0981 11.7006 15.9026 11.7006 17.0156 12.8136L18.1455 13.9434C18.1503 13.5538 18.1504 13.111 18.1504 12.6004V7.40039C18.1504 6.26626 18.1497 5.46678 18.0987 4.84242C18.0485 4.22797 17.9538 3.85835 17.8071 3.57032C17.5051 2.97761 17.0232 2.49572 16.4305 2.19372C16.1424 2.04696 15.7728 1.95227 15.1584 1.90206C14.534 1.85105 13.7345 1.85039 12.6004 1.85039H7.40039C6.26626 1.85039 5.46678 1.85105 4.84242 1.90206ZM17.9299 16.1306C17.9196 16.1211 17.9094 16.1114 17.8994 16.1014L15.8136 14.0156C15.3645 13.5665 14.6363 13.5665 14.1872 14.0156L13.2025 15.0004L16.1014 17.8993C16.1114 17.9094 16.1212 17.9196 16.1306 17.9299C16.2419 17.8939 16.3402 17.8531 16.4305 17.8071C17.0232 17.5051 17.5051 17.0232 17.8071 16.4305C17.8531 16.3402 17.8939 16.2419 17.9299 16.1306ZM13.9434 18.1455L8.31356 12.5156C7.86446 12.0665 7.13632 12.0665 6.68722 12.5156L2.41006 16.7928C2.70563 17.2199 3.10362 17.5693 3.57032 17.8071C3.85835 17.9538 4.22797 18.0485 4.84242 18.0987C5.46678 18.1497 6.26626 18.1504 7.40039 18.1504H12.6004C13.111 18.1504 13.5538 18.1503 13.9434 18.1455ZM13.0004 5.85039C12.3653 5.85039 11.8504 6.36526 11.8504 7.00039C11.8504 7.63552 12.3653 8.15039 13.0004 8.15039C13.6355 8.15039 14.1504 7.63552 14.1504 7.00039C14.1504 6.36526 13.6355 5.85039 13.0004 5.85039ZM10.1504 7.00039C10.1504 5.42638 11.4264 4.15039 13.0004 4.15039C14.5744 4.15039 15.8504 5.42638 15.8504 7.00039C15.8504 8.5744 14.5744 9.85039 13.0004 9.85039C11.4264 9.85039 10.1504 8.5744 10.1504 7.00039Z" fill="#4F5F6D"/>
</svg>
