<svg width="32" height="32" viewBox="0 0 32 32" fill="none" xmlns="http://www.w3.org/2000/svg">
<circle cx="16" cy="16" r="16" fill="#E9E9E9"/>
<mask id="mask0_1277_1772" style="mask-type:alpha" maskUnits="userSpaceOnUse" x="5" y="5" width="22" height="22">
<rect x="5" y="5" width="22" height="22" fill="#D9D9D9"/>
</mask>
<g mask="url(#mask0_1277_1772)">
<path d="M16 15.7184C15.1177 15.7184 14.3625 15.4043 13.7342 14.7761C13.1059 14.1477 12.7917 13.3924 12.7917 12.5101C12.7917 11.6278 13.1059 10.8725 13.7342 10.2443C14.3625 9.61595 15.1177 9.30176 16 9.30176C16.8823 9.30176 17.6375 9.61595 18.2658 10.2443C18.8941 10.8725 19.2083 11.6278 19.2083 12.5101C19.2083 13.3924 18.8941 14.1477 18.2658 14.7761C17.6375 15.4043 16.8823 15.7184 16 15.7184ZM9.125 22.6993V20.6613C9.125 20.2125 9.24692 19.7968 9.49075 19.4142C9.73458 19.0316 10.0605 18.7375 10.4684 18.5319C11.3743 18.0878 12.2883 17.7546 13.2104 17.5325C14.1324 17.3104 15.0623 17.1993 16 17.1993C16.9378 17.1993 17.8676 17.3104 18.7896 17.5325C19.7117 17.7546 20.6257 18.0878 21.5316 18.5319C21.9395 18.7375 22.2654 19.0316 22.5092 19.4142C22.7531 19.7968 22.875 20.2125 22.875 20.6613V22.6993H9.125ZM10.5 21.3243H21.5V20.6613C21.5 20.4757 21.4462 20.3038 21.3387 20.1457C21.2311 19.9877 21.0851 19.8588 20.9007 19.7589C20.1109 19.3699 19.3056 19.0752 18.4849 18.8747C17.664 18.6744 16.8357 18.5743 16 18.5743C15.1643 18.5743 14.336 18.6744 13.5151 18.8747C12.6944 19.0752 11.8891 19.3699 11.0993 19.7589C10.9149 19.8588 10.7689 19.9877 10.6613 20.1457C10.5538 20.3038 10.5 20.4757 10.5 20.6613V21.3243ZM16 14.3434C16.5042 14.3434 16.9358 14.1639 17.2948 13.8049C17.6538 13.4459 17.8333 13.0143 17.8333 12.5101C17.8333 12.0059 17.6538 11.5743 17.2948 11.2153C16.9358 10.8563 16.5042 10.6768 16 10.6768C15.4958 10.6768 15.0642 10.8563 14.7052 11.2153C14.3462 11.5743 14.1667 12.0059 14.1667 12.5101C14.1667 13.0143 14.3462 13.4459 14.7052 13.8049C15.0642 14.1639 15.4958 14.3434 16 14.3434Z" fill="#666666"/>
</g>
</svg>
