<svg width="20" height="20" viewBox="0 0 20 20" fill="none" xmlns="http://www.w3.org/2000/svg">
<mask id="mask0_1157_3607" style="mask-type:alpha" maskUnits="userSpaceOnUse" x="0" y="0" width="20" height="20">
<rect width="20" height="20" fill="#D9D9D9"/>
</mask>
<g mask="url(#mask0_1157_3607)">
<path d="M14.0043 17.9173C13.3805 17.9173 12.8509 17.6992 12.4155 17.2629C11.9802 16.8267 11.7626 16.297 11.7626 15.6738C11.7626 15.5904 11.7914 15.3879 11.8491 15.0663L5.9228 11.5775C5.72197 11.7859 5.48336 11.9491 5.20697 12.0671C4.93058 12.1852 4.63447 12.2442 4.31863 12.2442C3.69766 12.2442 3.16981 12.0252 2.73509 11.5871C2.30037 11.1491 2.08301 10.6202 2.08301 10.0007C2.08301 9.38107 2.30037 8.85225 2.73509 8.41419C3.16981 7.97614 3.69766 7.75711 4.31863 7.75711C4.63447 7.75711 4.93058 7.81614 5.20697 7.93419C5.48336 8.05225 5.72197 8.21544 5.9228 8.42378L11.8491 4.94294C11.816 4.84044 11.7933 4.74003 11.7809 4.64169C11.7687 4.54336 11.7626 4.43864 11.7626 4.32753C11.7626 3.70433 11.9809 3.17461 12.4174 2.73836C12.854 2.30211 13.3843 2.08398 14.008 2.08398C14.6318 2.08398 15.1613 2.30232 15.5966 2.73898C16.032 3.17551 16.2497 3.70565 16.2497 4.3294C16.2497 4.95315 16.0316 5.48273 15.5953 5.91815C15.159 6.35343 14.6293 6.57107 14.0061 6.57107C13.6888 6.57107 13.3936 6.51072 13.1207 6.39003C12.8477 6.26933 12.6107 6.10482 12.4099 5.89648L6.48363 9.38523C6.51669 9.48787 6.5394 9.58829 6.55176 9.68648C6.56398 9.78482 6.57009 9.88954 6.57009 10.0007C6.57009 10.1118 6.56398 10.2165 6.55176 10.3148C6.5394 10.413 6.51669 10.5134 6.48363 10.6161L12.4099 14.1048C12.6107 13.8965 12.8477 13.732 13.1207 13.6113C13.3936 13.4906 13.6888 13.4302 14.0061 13.4302C14.6293 13.4302 15.159 13.6485 15.5953 14.085C16.0316 14.5217 16.2497 15.0519 16.2497 15.6757C16.2497 16.2994 16.0313 16.8289 15.5947 17.2642C15.1581 17.6996 14.628 17.9173 14.0043 17.9173ZM14.0061 16.6673C14.2877 16.6673 14.5236 16.5721 14.714 16.3817C14.9045 16.1913 14.9997 15.9553 14.9997 15.6738C14.9997 15.3922 14.9045 15.1563 14.714 14.9659C14.5236 14.7753 14.2877 14.68 14.0061 14.68C13.7246 14.68 13.4886 14.7753 13.2982 14.9659C13.1077 15.1563 13.0124 15.3922 13.0124 15.6738C13.0124 15.9553 13.1077 16.1913 13.2982 16.3817C13.4886 16.5721 13.7246 16.6673 14.0061 16.6673ZM4.31863 10.9942C4.60238 10.9942 4.84023 10.899 5.03217 10.7086C5.22426 10.5182 5.3203 10.2822 5.3203 10.0007C5.3203 9.71912 5.22426 9.48315 5.03217 9.29273C4.84023 9.10232 4.60238 9.00711 4.31863 9.00711C4.03933 9.00711 3.80523 9.10232 3.61634 9.29273C3.42745 9.48315 3.33301 9.71912 3.33301 10.0007C3.33301 10.2822 3.42745 10.5182 3.61634 10.7086C3.80523 10.899 4.03933 10.9942 4.31863 10.9942ZM14.0061 5.32128C14.2877 5.32128 14.5236 5.226 14.714 5.03544C14.9045 4.84503 14.9997 4.60905 14.9997 4.32753C14.9997 4.046 14.9045 3.81003 14.714 3.61961C14.5236 3.42919 14.2877 3.33398 14.0061 3.33398C13.7246 3.33398 13.4886 3.42919 13.2982 3.61961C13.1077 3.81003 13.0124 4.046 13.0124 4.32753C13.0124 4.60905 13.1077 4.84503 13.2982 5.03544C13.4886 5.226 13.7246 5.32128 14.0061 5.32128Z" fill="#1C1B1F"/>
</g>
</svg>
