<svg width="20" height="20" viewBox="0 0 20 20" fill="none" xmlns="http://www.w3.org/2000/svg">
<mask id="mask0_1733_3300" style="mask-type:alpha" maskUnits="userSpaceOnUse" x="0" y="0" width="20" height="20">
<rect width="20" height="20" fill="#D9D9D9"/>
</mask>
<g mask="url(#mask0_1733_3300)">
<path d="M9.24223 17.9163C9.05404 17.9163 8.86529 17.8787 8.67598 17.8034C8.48668 17.728 8.31633 17.615 8.16494 17.4645L2.53515 11.8347C2.38251 11.6825 2.27119 11.5143 2.20119 11.3303C2.13119 11.1464 2.09619 10.9593 2.09619 10.769C2.09619 10.5788 2.13119 10.389 2.20119 10.1997C2.27119 10.0105 2.38251 9.84023 2.53515 9.68884L9.67619 2.53488C9.81452 2.39683 9.97807 2.28704 10.1668 2.20551C10.3554 2.12384 10.5504 2.08301 10.7516 2.08301H16.4022C16.8231 2.08301 17.1807 2.23127 17.4751 2.5278C17.7695 2.82447 17.9166 3.18099 17.9166 3.59738V9.24801C17.9166 9.45134 17.879 9.64509 17.8037 9.82926C17.7283 10.0134 17.6195 10.1738 17.4774 10.3105L10.3156 17.4645C10.165 17.615 9.99557 17.728 9.80723 17.8034C9.6189 17.8787 9.43057 17.9163 9.24223 17.9163ZM14.5593 6.48197C14.8508 6.48197 15.0986 6.38072 15.3027 6.17822C15.5068 5.97572 15.6089 5.72974 15.6089 5.4403C15.6089 5.14877 15.5072 4.90099 15.3037 4.69697C15.1002 4.4928 14.8531 4.39072 14.5624 4.39072C14.2719 4.39072 14.0251 4.49245 13.822 4.69592C13.6191 4.8994 13.5176 5.14648 13.5176 5.43717C13.5176 5.72773 13.6189 5.97453 13.8214 6.17759C14.0239 6.38051 14.2699 6.48197 14.5593 6.48197Z" fill="#1C1B1F"/>
</g>
</svg>
