<svg width="44" height="44" viewBox="0 0 44 44" fill="none" xmlns="http://www.w3.org/2000/svg">
<rect width="44" height="44" rx="22" fill="#06AD9B" fill-opacity="0.12"/>
<mask id="mask0_1094_1447" style="mask-type:alpha" maskUnits="userSpaceOnUse" x="10" y="10" width="25" height="25">
<rect x="10.2158" y="10.1484" width="24" height="24" fill="#D9D9D9"/>
</mask>
<g mask="url(#mask0_1094_1447)">
<path d="M11.1658 23.4484C10.8658 22.8484 10.6325 22.2401 10.4658 21.6234C10.2992 21.0068 10.2158 20.3818 10.2158 19.7484C10.2158 17.8818 10.8492 16.3151 12.1158 15.0484C13.3825 13.7818 14.9492 13.1484 16.8158 13.1484C17.8658 13.1484 18.8658 13.3693 19.8158 13.8109C20.7658 14.2526 21.5658 14.8651 22.2158 15.6484C22.8658 14.8651 23.6658 14.2526 24.6158 13.8109C25.5658 13.3693 26.5658 13.1484 27.6158 13.1484C29.4825 13.1484 31.0492 13.7818 32.3158 15.0484C33.5825 16.3151 34.2158 17.8818 34.2158 19.7484C34.2158 20.3818 34.1325 21.0068 33.9658 21.6234C33.7992 22.2401 33.5658 22.8484 33.2658 23.4484C33.0825 23.1318 32.8658 22.8484 32.6158 22.5984C32.3658 22.3484 32.0742 22.1484 31.7408 21.9984C31.8908 21.6151 32.0075 21.2401 32.0908 20.8734C32.1742 20.5068 32.2158 20.1318 32.2158 19.7484C32.2158 18.4484 31.7742 17.3568 30.8908 16.4734C30.0075 15.5901 28.9158 15.1484 27.6158 15.1484C26.2658 15.1484 25.2283 15.5193 24.5033 16.2609C23.7783 17.0026 23.0158 17.8318 22.2158 18.7484C21.4158 17.8151 20.6533 16.9818 19.9283 16.2484C19.2033 15.5151 18.1658 15.1484 16.8158 15.1484C15.5158 15.1484 14.4242 15.5901 13.5408 16.4734C12.6575 17.3568 12.2158 18.4484 12.2158 19.7484C12.2158 20.1318 12.2575 20.5068 12.3408 20.8734C12.4242 21.2401 12.5408 21.6151 12.6908 21.9984C12.3575 22.1484 12.0658 22.3484 11.8158 22.5984C11.5658 22.8484 11.3492 23.1318 11.1658 23.4484ZM10.2158 32.1484V30.5734C10.2158 29.8401 10.5867 29.2526 11.3283 28.8109C12.07 28.3693 13.0325 28.1484 14.2158 28.1484C14.4325 28.1484 14.6408 28.1526 14.8408 28.1609C15.0408 28.1693 15.2325 28.1901 15.4158 28.2234C15.1825 28.5568 15.0075 28.9151 14.8908 29.2984C14.7742 29.6818 14.7158 30.0901 14.7158 30.5234V32.1484H10.2158ZM16.2158 32.1484V30.5234C16.2158 29.4401 16.77 28.5651 17.8783 27.8984C18.9867 27.2318 20.4325 26.8984 22.2158 26.8984C24.0158 26.8984 25.4658 27.2318 26.5658 27.8984C27.6658 28.5651 28.2158 29.4401 28.2158 30.5234V32.1484H16.2158ZM29.7158 32.1484V30.5234C29.7158 30.0901 29.6617 29.6818 29.5533 29.2984C29.445 28.9151 29.2825 28.5568 29.0658 28.2234C29.2492 28.1901 29.4367 28.1693 29.6283 28.1609C29.82 28.1526 30.0158 28.1484 30.2158 28.1484C31.4158 28.1484 32.3825 28.3693 33.1158 28.8109C33.8492 29.2526 34.2158 29.8401 34.2158 30.5734V32.1484H29.7158ZM22.2158 28.8984C21.2658 28.8984 20.4158 29.0234 19.6658 29.2734C18.9158 29.5234 18.4742 29.8151 18.3408 30.1484H26.1158C25.9658 29.8151 25.52 29.5234 24.7783 29.2734C24.0367 29.0234 23.1825 28.8984 22.2158 28.8984ZM14.2158 27.1484C13.6658 27.1484 13.195 26.9526 12.8033 26.5609C12.4117 26.1693 12.2158 25.6984 12.2158 25.1484C12.2158 24.5818 12.4117 24.1068 12.8033 23.7234C13.195 23.3401 13.6658 23.1484 14.2158 23.1484C14.7825 23.1484 15.2575 23.3401 15.6408 23.7234C16.0242 24.1068 16.2158 24.5818 16.2158 25.1484C16.2158 25.6984 16.0242 26.1693 15.6408 26.5609C15.2575 26.9526 14.7825 27.1484 14.2158 27.1484ZM30.2158 27.1484C29.6658 27.1484 29.195 26.9526 28.8033 26.5609C28.4117 26.1693 28.2158 25.6984 28.2158 25.1484C28.2158 24.5818 28.4117 24.1068 28.8033 23.7234C29.195 23.3401 29.6658 23.1484 30.2158 23.1484C30.7825 23.1484 31.2575 23.3401 31.6408 23.7234C32.0242 24.1068 32.2158 24.5818 32.2158 25.1484C32.2158 25.6984 32.0242 26.1693 31.6408 26.5609C31.2575 26.9526 30.7825 27.1484 30.2158 27.1484ZM22.2158 26.1484C21.3825 26.1484 20.6742 25.8568 20.0908 25.2734C19.5075 24.6901 19.2158 23.9818 19.2158 23.1484C19.2158 22.2984 19.5075 21.5859 20.0908 21.0109C20.6742 20.4359 21.3825 20.1484 22.2158 20.1484C23.0658 20.1484 23.7783 20.4359 24.3533 21.0109C24.9283 21.5859 25.2158 22.2984 25.2158 23.1484C25.2158 23.9818 24.9283 24.6901 24.3533 25.2734C23.7783 25.8568 23.0658 26.1484 22.2158 26.1484ZM22.2158 22.1484C21.9325 22.1484 21.695 22.2443 21.5033 22.4359C21.3117 22.6276 21.2158 22.8651 21.2158 23.1484C21.2158 23.4318 21.3117 23.6693 21.5033 23.8609C21.695 24.0526 21.9325 24.1484 22.2158 24.1484C22.4992 24.1484 22.7367 24.0526 22.9283 23.8609C23.12 23.6693 23.2158 23.4318 23.2158 23.1484C23.2158 22.8651 23.12 22.6276 22.9283 22.4359C22.7367 22.2443 22.4992 22.1484 22.2158 22.1484Z" fill="#034EA1"/>
</g>
</svg>
