<svg width="21" height="21" viewBox="0 0 21 21" fill="none" xmlns="http://www.w3.org/2000/svg">
<path d="M6.91557 12.5733C9.17246 12.5733 11.002 10.7438 11.002 8.48686C11.002 6.22996 9.17246 4.40039 6.91557 4.40039C4.65868 4.40039 2.8291 6.22996 2.8291 8.48686C2.8291 10.7438 4.65868 12.5733 6.91557 12.5733Z" stroke="#54555A" stroke-width="1.5" stroke-linecap="round" stroke-linejoin="round"/>
<path d="M12.2129 4.5497C12.5741 4.45173 12.9467 4.40153 13.321 4.40039C14.4048 4.40039 15.4442 4.83093 16.2105 5.59729C16.9769 6.36365 17.4074 7.40306 17.4074 8.48686C17.4074 9.57066 16.9769 10.6101 16.2105 11.3764C15.4442 12.1428 14.4048 12.5733 13.321 12.5733" stroke="#54555A" stroke-width="1.5" stroke-linecap="round" stroke-linejoin="round"/>
<path d="M1.25732 15.5126C1.8954 14.6046 2.74263 13.8635 3.72744 13.3519C4.71226 12.8403 5.80573 12.5732 6.91551 12.5732C8.02529 12.5732 9.11876 12.8403 10.1036 13.3519C11.0884 13.8635 11.9356 14.6046 12.5737 15.5126" stroke="#54555A" stroke-width="1.5" stroke-linecap="round" stroke-linejoin="round"/>
<path d="M13.3203 12.5742C14.4302 12.5735 15.5239 12.8403 16.5088 13.3519C17.4937 13.8635 18.3409 14.6049 18.9785 15.5133" stroke="#54555A" stroke-width="1.5" stroke-linecap="round" stroke-linejoin="round"/>
</svg>
