<svg width="22" height="18" viewBox="0 0 22 18" fill="none" xmlns="http://www.w3.org/2000/svg">
<path fill-rule="evenodd" clip-rule="evenodd" d="M7.40039 0.150393L7.3634 0.150393C6.27465 0.150385 5.4057 0.150379 4.70398 0.207712C3.98441 0.266504 3.36616 0.389794 2.79854 0.679011C1.88595 1.144 1.14399 1.88595 0.679008 2.79854C0.389791 3.36616 0.266501 3.98441 0.207709 4.70398C0.150376 5.4057 0.150382 6.27466 0.15039 7.3634L0.15039 7.40039L0.15039 10.6004L0.15039 10.6374C0.150382 11.7261 0.150376 12.5951 0.207709 13.2968C0.266501 14.0164 0.389791 14.6346 0.679008 15.2022C1.14399 16.1148 1.88595 16.8568 2.79854 17.3218C3.36616 17.611 3.98441 17.7343 4.70398 17.7931C5.40571 17.8504 6.27468 17.8504 7.36346 17.8504L7.40039 17.8504L10.6004 17.8504L10.6373 17.8504C11.7261 17.8504 12.5951 17.8504 13.2968 17.7931C14.0164 17.7343 14.6346 17.611 15.2022 17.3218C16.1148 16.8568 16.8568 16.1148 17.3218 15.2022C17.565 14.7248 17.6909 14.2116 17.7597 13.6324L18.8904 14.4804C20.11 15.3951 21.8504 14.5249 21.8504 13.0004L21.8504 5.00034C21.8504 3.47585 20.11 2.60564 18.8904 3.52036L17.7597 4.36836C17.6909 3.78916 17.565 3.27594 17.3218 2.79854C16.8568 1.88595 16.1148 1.144 15.2022 0.679011C14.6346 0.389794 14.0164 0.266504 13.2968 0.207712C12.5951 0.150379 11.7261 0.150385 10.6374 0.150393L10.6004 0.150393L7.40039 0.150393ZM17.8504 7.36346C17.8504 7.32404 17.8504 7.28491 17.8504 7.24607L17.8504 7.23529L17.8504 7.22402L17.8504 7.21276L17.8504 7.2015L17.8504 7.19024L17.8504 7.17899L17.8504 7.16773L17.8504 7.15648L17.8504 7.14524L17.8504 7.134L17.8504 7.12276L17.8504 7.11152L17.8504 7.10029L17.8504 7.08906L17.8504 7.07783L17.8504 7.06661L17.8504 7.05539L17.8504 7.04417L17.8504 7.03296L17.8504 7.02175L17.8504 7.01054L17.8504 6.99934L17.8504 6.98814L17.8504 6.97695L17.8504 6.96576L17.8504 6.95457L17.8504 6.94339L17.8504 6.93221L17.8504 6.92104L17.8504 6.90987L17.8504 6.89871L17.8504 6.88755L17.8504 6.87639L17.8504 6.86524L17.8504 6.8541L17.8504 6.84296L17.8504 6.83182L17.8504 6.82069L17.8504 6.80956L17.8504 6.79844L17.8504 6.78732L17.8504 6.77621L17.8504 6.76511L17.8504 6.75401L17.8504 6.74291L17.8504 6.73182L17.8504 6.72074L17.8504 6.70966L17.8504 6.69859L17.8504 6.68752L17.8504 6.67646L17.8504 6.6654L17.8504 6.65435L17.8504 6.64331L17.8504 6.63227L17.8504 6.62124L17.8504 6.61022L17.8504 6.5992L17.8504 6.58818L17.8504 6.57718L17.8504 6.56618L17.8504 6.55518L17.8504 6.5442L17.8504 6.53322L17.8504 6.52224L17.8504 6.51128L17.8504 6.50032C17.8504 6.45317 17.8726 6.40876 17.9104 6.38039L19.9104 4.88035C20.0093 4.80618 20.1504 4.87674 20.1504 5.00034L20.1504 13.0004C20.1504 13.124 20.0093 13.1946 19.9104 13.1204L17.9104 11.6204C17.8714 11.5911 17.8504 11.5477 17.8504 11.5021L17.8504 11.4965L17.8504 11.4908L17.8504 11.4851L17.8504 11.4794L17.8504 11.4737L17.8504 11.4679L17.8504 11.4621L17.8504 11.4563L17.8504 11.4504L17.8504 11.4445L17.8504 11.4386L17.8504 11.4327L17.8504 11.4267L17.8504 11.4207L17.8504 11.4147L17.8504 11.4087L17.8504 11.4026L17.8504 11.3965L17.8504 11.3904L17.8504 11.3843L17.8504 11.3781L17.8504 11.3719L17.8504 11.3657L17.8504 11.3594L17.8504 11.3531L17.8504 11.3468L17.8504 11.3405L17.8504 11.3341L17.8504 11.3277L17.8504 11.3213L17.8504 11.3149L17.8504 11.3084L17.8504 11.302L17.8504 11.2954L17.8504 11.2889L17.8504 11.2823L17.8504 11.2758L17.8504 11.2691L17.8504 11.2625L17.8504 11.2558L17.8504 11.2491L17.8504 11.2424L17.8504 11.2357L17.8504 11.2289L17.8504 11.2221L17.8504 11.2153L17.8504 11.2085L17.8504 11.2016L17.8504 11.1947L17.8504 11.1878L17.8504 11.1809L17.8504 11.1739L17.8504 11.167L17.8504 11.1599L17.8504 11.1529L17.8504 11.1459L17.8504 11.1388L17.8504 11.1317L17.8504 11.1245L17.8504 11.1174L17.8504 11.1102L17.8504 11.103L17.8504 11.0958L17.8504 11.0885L17.8504 11.0813L17.8504 11.074L17.8504 11.0667L17.8504 11.0593L17.8504 11.052L17.8504 11.0446L17.8504 11.0372L17.8504 11.0297L17.8504 11.0223L17.8504 11.0148L17.8504 11.0073L17.8504 10.9998L17.8504 10.9922L17.8504 10.9847L17.8504 10.9771L17.8504 10.9695L17.8504 10.9618L17.8504 10.9542L17.8504 10.9465L17.8504 10.9388L17.8504 10.9311L17.8504 10.9233L17.8504 10.9155L17.8504 10.9077L17.8504 10.8999L17.8504 10.8921L17.8504 10.8842L17.8504 10.8764L17.8504 10.8685L17.8504 10.8605L17.8504 10.8526L17.8504 10.8446L17.8504 10.8367L17.8504 10.8286L17.8504 10.8206L17.8504 10.8126L17.8504 10.8045L17.8504 10.7964L17.8504 10.7883L17.8504 10.7802L17.8504 10.772L17.8504 10.7638L17.8504 10.7557L17.8504 10.7474L17.8504 10.7392L17.8504 10.7309L17.8504 10.7227L17.8504 10.7144L17.8504 10.7061L17.8504 10.7022M17.8504 7.36346L17.8504 7.37064L17.8504 7.38193L17.8504 7.39322L17.8504 7.40039L17.8504 7.40452L17.8504 7.41582L17.8504 7.42711L17.8504 7.43841L17.8504 7.44971L17.8504 7.46101L17.8504 7.47232L17.8504 7.48362L17.8504 7.49492L17.8504 7.50623L17.8504 7.51754L17.8504 7.52884L17.8504 7.54015L17.8504 7.55146L17.8504 7.56277L17.8504 7.57408L17.8504 7.58539L17.8504 7.5967L17.8504 7.60801L17.8504 7.61932L17.8504 7.63063L17.8504 7.64194L17.8504 7.65325L17.8504 7.66456L17.8504 7.67587L17.8504 7.68718L17.8504 7.69849L17.8504 7.7098L17.8504 7.72111L17.8504 7.73242L17.8504 7.74373L17.8504 7.75504L17.8504 7.76635L17.8504 7.77765L17.8504 7.78896L17.8504 7.80027L17.8504 7.81157L17.8504 7.82287L17.8504 7.83417L17.8504 7.84548L17.8504 7.85678L17.8504 7.86807L17.8504 7.87937L17.8504 7.89067L17.8504 7.90196L17.8504 7.91325L17.8504 7.92454L17.8504 7.93583L17.8504 7.94712L17.8504 7.95841L17.8504 7.96969L17.8504 7.98097L17.8504 7.99225L17.8504 8.00353L17.8504 8.01481L17.8504 8.02608L17.8504 8.03735L17.8504 8.04862L17.8504 8.05989L17.8504 8.07115L17.8504 8.08241L17.8504 8.09367L17.8504 8.10493L17.8504 8.11618L17.8504 8.12743L17.8504 8.13868L17.8504 8.14992L17.8504 8.16117L17.8504 8.1724L17.8504 8.18364L17.8504 8.19487L17.8504 8.2061L17.8504 8.21733L17.8504 8.22855L17.8504 8.23977L17.8504 8.25098L17.8504 8.26219L17.8504 8.2734L17.8504 8.28461L17.8504 8.29581L17.8504 8.307L17.8504 8.31819L17.8504 8.32938L17.8504 8.34056L17.8504 8.35174L17.8504 8.36292L17.8504 8.37409L17.8504 8.38526L17.8504 8.39642L17.8504 8.40758L17.8504 8.41873L17.8504 8.42988L17.8504 8.44102L17.8504 8.45216L17.8504 8.4633L17.8504 8.47443L17.8504 8.48555L17.8504 8.49667L17.8504 8.50778L17.8504 8.51889L17.8504 8.53L17.8504 8.5411L17.8504 8.55219L17.8504 8.56328L17.8504 8.57436L17.8504 8.58543L17.8504 8.5965L17.8504 8.60757L17.8504 8.61863L17.8504 8.62968L17.8504 8.64073L17.8504 8.65177L17.8504 8.6628L17.8504 8.67383L17.8504 8.68486L17.8504 8.69587L17.8504 8.70688L17.8504 8.71789L17.8504 8.72888L17.8504 8.73987L17.8504 8.75086L17.8504 8.76183L17.8504 8.77281L17.8504 8.78377L17.8504 8.79473L17.8504 8.80568L17.8504 8.81662L17.8504 8.82755L17.8504 8.83848L17.8504 8.8494L17.8504 8.86032L17.8504 8.87122L17.8504 8.88212L17.8504 8.89302L17.8504 8.9039L17.8504 8.91478L17.8504 8.92564L17.8504 8.93651L17.8504 8.94736L17.8504 8.9582L17.8504 8.96904L17.8504 8.97987L17.8504 8.99069L17.8504 9.0015L17.8504 9.01231L17.8504 9.0231L17.8504 9.03389L17.8504 9.04467L17.8504 9.05544L17.8504 9.06621L17.8504 9.07696L17.8504 9.0877L17.8504 9.09844L17.8504 9.10917L17.8504 9.11988L17.8504 9.13059L17.8504 9.14129L17.8504 9.15199L17.8504 9.16267L17.8504 9.17334L17.8504 9.184L17.8504 9.19466L17.8504 9.2053L17.8504 9.21594L17.8504 9.22656L17.8504 9.23718L17.8504 9.24778L17.8504 9.25838L17.8504 9.26897L17.8504 9.27954L17.8504 9.29011L17.8504 9.30066L17.8504 9.31121L17.8504 9.32175L17.8504 9.33227L17.8504 9.34279L17.8504 9.35329L17.8504 9.36379L17.8504 9.37427L17.8504 9.38474L17.8504 9.3952L17.8504 9.40566L17.8504 9.4161L17.8504 9.42653L17.8504 9.43694L17.8504 9.44735L17.8504 9.45775L17.8504 9.46813L17.8504 9.47851L17.8504 9.48887L17.8504 9.49922L17.8504 9.50956L17.8504 9.51989L17.8504 9.53021L17.8504 9.54051L17.8504 9.55081L17.8504 9.56109L17.8504 9.57136L17.8504 9.58162L17.8504 9.59186L17.8504 9.6021L17.8504 9.61232L17.8504 9.62253L17.8504 9.63273L17.8504 9.64291L17.8504 9.65309L17.8504 9.66325L17.8504 9.67339L17.8504 9.68353L17.8504 9.69365L17.8504 9.70376L17.8504 9.71386L17.8504 9.72394L17.8504 9.73401L17.8504 9.74407L17.8504 9.75412L17.8504 9.76415L17.8504 9.77417L17.8504 9.78417L17.8504 9.79417L17.8504 9.80415L17.8504 9.81411L17.8504 9.82406L17.8504 9.834L17.8504 9.84393L17.8504 9.85384L17.8504 9.86373L17.8504 9.87362L17.8504 9.88349L17.8504 9.89334L17.8504 9.90318L17.8504 9.91301L17.8504 9.92282L17.8504 9.93262L17.8504 9.9424L17.8504 9.95217L17.8504 9.96193L17.8504 9.97167L17.8504 9.9814L17.8504 9.99111L17.8504 10.0008L17.8504 10.0105L17.8504 10.0202L17.8504 10.0298L17.8504 10.0394L17.8504 10.0491L17.8504 10.0587L17.8504 10.0683L17.8504 10.0778L17.8504 10.0874L17.8504 10.0969L17.8504 10.1065L17.8504 10.116L17.8504 10.1255L17.8504 10.135L17.8504 10.1444L17.8504 10.1539L17.8504 10.1633L17.8504 10.1727L17.8504 10.1821L17.8504 10.1915L17.8504 10.2009L17.8504 10.2103L17.8504 10.2196L17.8504 10.2289L17.8504 10.2382L17.8504 10.2475L17.8504 10.2568L17.8504 10.266L17.8504 10.2753L17.8504 10.2845L17.8504 10.2937L17.8504 10.3029L17.8504 10.3121L17.8504 10.3212L17.8504 10.3303L17.8504 10.3395L17.8504 10.3486L17.8504 10.3577L17.8504 10.3667L17.8504 10.3758L17.8504 10.3848L17.8504 10.3938L17.8504 10.4028L17.8504 10.4118L17.8504 10.4208L17.8504 10.4297L17.8504 10.4386L17.8504 10.4475L17.8504 10.4564L17.8504 10.4653L17.8504 10.4742L17.8504 10.483L17.8504 10.4918L17.8504 10.5006L17.8504 10.5094L17.8504 10.5181L17.8504 10.5269L17.8504 10.5356L17.8504 10.5443L17.8504 10.553L17.8504 10.5617L17.8504 10.5703L17.8504 10.579L17.8504 10.5876L17.8504 10.5962L17.8504 10.6004L17.8504 10.6047L17.8504 10.6133L17.8504 10.6218L17.8504 10.6303L17.8504 10.6373M16.1504 7.40039C16.1504 6.26626 16.1497 5.46678 16.0987 4.84242C16.0485 4.22797 15.9538 3.85835 15.8071 3.57032C15.5051 2.97761 15.0232 2.49572 14.4305 2.19372C14.1424 2.04697 13.7728 1.95227 13.1584 1.90207C12.534 1.85105 11.7345 1.85039 10.6004 1.85039L7.40039 1.85039C6.26626 1.85039 5.46678 1.85105 4.84241 1.90207C4.22797 1.95227 3.85835 2.04697 3.57032 2.19372C2.97761 2.49572 2.49572 2.97761 2.19372 3.57032C2.04696 3.85835 1.95227 4.22797 1.90206 4.84242C1.85105 5.46678 1.85039 6.26626 1.85039 7.40039L1.85039 10.6004C1.85039 11.7345 1.85105 12.534 1.90206 13.1584C1.95227 13.7728 2.04696 14.1424 2.19372 14.4305C2.49572 15.0232 2.97761 15.5051 3.57032 15.8071C3.85835 15.9538 4.22797 16.0485 4.84241 16.0987C5.46678 16.1497 6.26626 16.1504 7.40039 16.1504L10.6004 16.1504C11.7345 16.1504 12.534 16.1497 13.1584 16.0987C13.7728 16.0485 14.1424 15.9538 14.4305 15.8071C15.0232 15.5051 15.5051 15.0232 15.8071 14.4305C15.9538 14.1424 16.0485 13.7728 16.0987 13.1584C16.1497 12.534 16.1504 11.7345 16.1504 10.6004L16.1504 10.5962L16.1504 10.5876L16.1504 10.579L16.1504 10.5703L16.1504 10.5617L16.1504 10.553L16.1504 10.5443L16.1504 10.5356L16.1504 10.5269L16.1504 10.5181L16.1504 10.5094L16.1504 10.5006L16.1504 10.4918L16.1504 10.483L16.1504 10.4742L16.1504 10.4653L16.1504 10.4564L16.1504 10.4475L16.1504 10.4386L16.1504 10.4297L16.1504 10.4208L16.1504 10.4118L16.1504 10.4028L16.1504 10.3938L16.1504 10.3848L16.1504 10.3758L16.1504 10.3667L16.1504 10.3577L16.1504 10.3486L16.1504 10.3395L16.1504 10.3303L16.1504 10.3212L16.1504 10.3121L16.1504 10.3029L16.1504 10.2937L16.1504 10.2845L16.1504 10.2753L16.1504 10.266L16.1504 10.2568L16.1504 10.2475L16.1504 10.2382L16.1504 10.2289L16.1504 10.2196L16.1504 10.2103L16.1504 10.2009L16.1504 10.1915L16.1504 10.1821L16.1504 10.1727L16.1504 10.1633L16.1504 10.1539L16.1504 10.1444L16.1504 10.135L16.1504 10.1255L16.1504 10.116L16.1504 10.1065L16.1504 10.0969L16.1504 10.0874L16.1504 10.0778L16.1504 10.0683L16.1504 10.0587L16.1504 10.0491L16.1504 10.0394L16.1504 10.0298L16.1504 10.0202L16.1504 10.0105L16.1504 10.0008L16.1504 9.99111L16.1504 9.98139L16.1504 9.97167L16.1504 9.96193L16.1504 9.95217L16.1504 9.9424L16.1504 9.93262L16.1504 9.92282L16.1504 9.91301L16.1504 9.90318L16.1504 9.89334L16.1504 9.88349L16.1504 9.87362L16.1504 9.86373L16.1504 9.85384L16.1504 9.84393L16.1504 9.834L16.1504 9.82406L16.1504 9.81411L16.1504 9.80415L16.1504 9.79417L16.1504 9.78417L16.1504 9.77417L16.1504 9.76415L16.1504 9.75412L16.1504 9.74407L16.1504 9.73401L16.1504 9.72394L16.1504 9.71386L16.1504 9.70376L16.1504 9.69365L16.1504 9.68353L16.1504 9.67339L16.1504 9.66325L16.1504 9.65309L16.1504 9.64291L16.1504 9.63273L16.1504 9.62253L16.1504 9.61232L16.1504 9.6021L16.1504 9.59186L16.1504 9.58162L16.1504 9.57136L16.1504 9.56109L16.1504 9.55081L16.1504 9.54051L16.1504 9.53021L16.1504 9.51989L16.1504 9.50956L16.1504 9.49922L16.1504 9.48887L16.1504 9.47851L16.1504 9.46813L16.1504 9.45775L16.1504 9.44735L16.1504 9.43694L16.1504 9.42653L16.1504 9.4161L16.1504 9.40566L16.1504 9.3952L16.1504 9.38474L16.1504 9.37427L16.1504 9.36378L16.1504 9.35329L16.1504 9.34279L16.1504 9.33227L16.1504 9.32175L16.1504 9.31121L16.1504 9.30066L16.1504 9.29011L16.1504 9.27954L16.1504 9.26897L16.1504 9.25838L16.1504 9.24778L16.1504 9.23718L16.1504 9.22656L16.1504 9.21594L16.1504 9.2053L16.1504 9.19466L16.1504 9.184L16.1504 9.17334L16.1504 9.16267L16.1504 9.15199L16.1504 9.14129L16.1504 9.13059L16.1504 9.11989L16.1504 9.10917L16.1504 9.09844L16.1504 9.0877L16.1504 9.07696L16.1504 9.0662L16.1504 9.05544L16.1504 9.04467L16.1504 9.03389L16.1504 9.0231L16.1504 9.01231L16.1504 9.0015L16.1504 8.99069L16.1504 8.97987L16.1504 8.96904L16.1504 8.9582L16.1504 8.94736L16.1504 8.93651L16.1504 8.92564L16.1504 8.91478L16.1504 8.9039L16.1504 8.89301L16.1504 8.88212L16.1504 8.87122L16.1504 8.86032L16.1504 8.8494L16.1504 8.83848L16.1504 8.82755L16.1504 8.81662L16.1504 8.80568L16.1504 8.79473L16.1504 8.78377L16.1504 8.77281L16.1504 8.76184L16.1504 8.75086L16.1504 8.73987L16.1504 8.72888L16.1504 8.71789L16.1504 8.70688L16.1504 8.69587L16.1504 8.68486L16.1504 8.67383L16.1504 8.6628L16.1504 8.65177L16.1504 8.64073L16.1504 8.62968L16.1504 8.61863L16.1504 8.60757L16.1504 8.5965L16.1504 8.58543L16.1504 8.57436L16.1504 8.56328L16.1504 8.55219L16.1504 8.5411L16.1504 8.53L16.1504 8.51889L16.1504 8.50778L16.1504 8.49667L16.1504 8.48555L16.1504 8.47443L16.1504 8.4633L16.1504 8.45216L16.1504 8.44102L16.1504 8.42988L16.1504 8.41873L16.1504 8.40758L16.1504 8.39642L16.1504 8.38526L16.1504 8.37409L16.1504 8.36292L16.1504 8.35175L16.1504 8.34057L16.1504 8.32938L16.1504 8.31819L16.1504 8.307L16.1504 8.2958L16.1504 8.2846L16.1504 8.2734L16.1504 8.26219L16.1504 8.25098L16.1504 8.23977L16.1504 8.22855L16.1504 8.21733L16.1504 8.2061L16.1504 8.19487L16.1504 8.18364L16.1504 8.1724L16.1504 8.16117L16.1504 8.14992L16.1504 8.13868L16.1504 8.12743L16.1504 8.11618L16.1504 8.10493L16.1504 8.09367L16.1504 8.08241L16.1504 8.07115L16.1504 8.05989L16.1504 8.04862L16.1504 8.03735L16.1504 8.02608L16.1504 8.01481L16.1504 8.00353L16.1504 7.99225L16.1504 7.98097L16.1504 7.96969L16.1504 7.95841L16.1504 7.94712L16.1504 7.93583L16.1504 7.92454L16.1504 7.91325L16.1504 7.90196L16.1504 7.89067L16.1504 7.87937L16.1504 7.86807L16.1504 7.85677L16.1504 7.84548L16.1504 7.83417L16.1504 7.82287L16.1504 7.81157L16.1504 7.80026L16.1504 7.78896L16.1504 7.77765L16.1504 7.76635L16.1504 7.75504L16.1504 7.74373L16.1504 7.73242L16.1504 7.72111L16.1504 7.7098L16.1504 7.69849L16.1504 7.68718L16.1504 7.67587L16.1504 7.66456L16.1504 7.65325L16.1504 7.64194L16.1504 7.63063L16.1504 7.61932L16.1504 7.60801L16.1504 7.5967L16.1504 7.58539L16.1504 7.57408L16.1504 7.56277L16.1504 7.55146L16.1504 7.54015L16.1504 7.52884L16.1504 7.51754L16.1504 7.50623L16.1504 7.49492L16.1504 7.48362L16.1504 7.47232L16.1504 7.46101L16.1504 7.44971L16.1504 7.43841L16.1504 7.42711L16.1504 7.41581L16.1504 7.40452L16.1504 7.40039Z" fill="#4F5F6D"/>
</svg>
