<svg width="21" height="21" viewBox="0 0 21 21" fill="none" xmlns="http://www.w3.org/2000/svg">
<mask id="mask0_1927_2930" style="mask-type:alpha" maskUnits="userSpaceOnUse" x="0" y="0" width="21" height="21">
<rect x="0.846924" y="0.682617" width="20" height="20" fill="#D9D9D9"/>
</mask>
<g mask="url(#mask0_1927_2930)">
<path d="M10.8487 13.6635C11.793 13.6635 12.595 13.333 13.2547 12.672C13.9145 12.011 14.2443 11.2084 14.2443 10.2641C14.2443 9.31977 13.9138 8.51776 13.2529 7.85803C12.5919 7.19831 11.7893 6.86845 10.8449 6.86845C9.90064 6.86845 9.09863 7.19894 8.43891 7.85991C7.77918 8.52088 7.44932 9.32352 7.44932 10.2678C7.44932 11.2121 7.77981 12.0141 8.44078 12.6739C9.10175 13.3336 9.90439 13.6635 10.8487 13.6635ZM10.8468 12.516C10.2218 12.516 9.69057 12.2972 9.25307 11.8597C8.81557 11.4222 8.59682 10.891 8.59682 10.266C8.59682 9.64095 8.81557 9.1097 9.25307 8.6722C9.69057 8.2347 10.2218 8.01595 10.8468 8.01595C11.4718 8.01595 12.0031 8.2347 12.4406 8.6722C12.8781 9.1097 13.0968 9.64095 13.0968 10.266C13.0968 10.891 12.8781 11.4222 12.4406 11.8597C12.0031 12.2972 11.4718 12.516 10.8468 12.516ZM10.8479 16.0993C8.93161 16.0993 7.18557 15.5707 5.60974 14.5135C4.03391 13.4564 2.87363 12.0405 2.12891 10.266C2.87363 8.49137 4.03349 7.07553 5.60849 6.01845C7.18363 4.96123 8.92939 4.43262 10.8458 4.43262C12.762 4.43262 14.5081 4.96123 16.0839 6.01845C17.6597 7.07553 18.82 8.49137 19.5647 10.266C18.82 12.0405 17.6602 13.4564 16.0852 14.5135C14.51 15.5707 12.7643 16.0993 10.8479 16.0993ZM10.8468 14.8493C12.4163 14.8493 13.8572 14.4361 15.1697 13.6097C16.4822 12.7833 17.4857 11.6687 18.1802 10.266C17.4857 8.86317 16.4822 7.74859 15.1697 6.9222C13.8572 6.09581 12.4163 5.68262 10.8468 5.68262C9.27738 5.68262 7.83641 6.09581 6.52391 6.9222C5.21141 7.74859 4.20793 8.86317 3.51349 10.266C4.20793 11.6687 5.21141 12.7833 6.52391 13.6097C7.83641 14.4361 9.27738 14.8493 10.8468 14.8493Z" fill="#1C1B1F"/>
</g>
</svg>
